<?xml version="1.0" standalone="no"?>
<!DOCTYPE svg PUBLIC "-//W3C//DTD SVG 1.1//EN" "http://www.w3.org/Graphics/SVG/1.1/DTD/svg11.dtd" >
<svg xmlns="http://www.w3.org/2000/svg">
<metadata>Generated by IcoMoon</metadata>
<defs>
<font id="magar" horiz-adv-x="1024">
<font-face units-per-em="1024" ascent="960" descent="-64" />
<missing-glyph horiz-adv-x="1024" />
<glyph unicode="&#x20;" horiz-adv-x="512" d="" />
<glyph unicode="&#x21;" glyph-name="icon-invoice" d="M793.477-64c0 0-759.477 0-759.477 0s0 856.624 0 856.624c0 0 0 28.215 0 28.215s0 139.161 0 139.161c0 0 956.913 0 956.913 0s0-139.161 0-139.161c0 0 0-28.215 0-28.215s0-652.357 0-652.357c0 0-197.436-204.267-197.436-204.267s0 0 0 0M924.509 763.589c0 0-828.477 0-828.477 0s0-766.582 0-766.582c0 0 639.718 0 639.718 0s-0.615 212.397-0.615 212.397c0 0 189.374-0.137 189.374-0.137s0 554.322 0 554.322c0 0 0 0 0 0M210.804 378.419c0 0 609.18 0 609.18 0s0-52.672 0-52.672c0 0-609.18 0-609.18 0s0 52.672 0 52.672c0 0 0 0 0 0M210.804 643.557c0 0 609.18 0 609.18 0s0-52.604 0-52.604c0 0-609.18 0-609.18 0s0 52.604 0 52.604c0 0 0 0 0 0M817.115 460.331c0 0-609.317 0-609.317 0s0 52.672 0 52.672c0 0 609.317 0 609.317 0s0-52.672 0-52.672c0 0 0 0 0 0M578.963 187.542c0 0-368.159 0-368.159 0s0 52.604 0 52.604c0 0 368.159 0 368.159 0s0-52.604 0-52.604c0 0 0 0 0 0" />
<glyph unicode="&#x22;" glyph-name="icon-bookkeeping" d="M949.327 11.386c0 0 0 914.288 0 914.288 0 27.373-35.571 34.326-35.571 34.326s-731.752 0-731.752 0c-106.931 0-107.004-109.785-107.004-109.785s0-877.693 0-877.693c0-20.127 16.98-36.522 38.059-36.522 0 0 684.252 0 684.252 0 20.933 0 37.986 16.395 37.986 36.522 0 0 76.044 0.073 76.044 0.073 40.913 0 37.986 38.791 37.986 38.791s0 0 0 0M227.015-1.569c0 0-65.724 0-65.724 0s0 799.6 0 799.6c0 0 65.724 0 65.724 0s0-799.6 0-799.6c0 0 0 0 0 0M782.234 592.587c0 0-363.022 0-363.022 0s0 188.025 0 188.025c0 0 363.022 0 363.022 0s0-188.025 0-188.025c0 0 0 0 0 0M835.297 290.825c0 0 0 521.331 0 521.331 0 20.201-17.053 36.522-37.986 36.522 0 0-647.438 0.293-647.438 0.293 0 25.104 39.23 37.839 39.23 37.839s646.194 0 646.194 0c40.401 0 39.23-34.253 39.23-34.253s0-823.020 0-823.020c0 0-6.734-23.86-39.23-23.86 0 0 0 285.148 0 285.148" />
<glyph unicode="&#x23;" glyph-name="icon-contractor" d="M959.966 107c0 0-896 0-896 0-35.362 0-63.966 27.785-63.966 62.054 0 0 0 62.055 0 62.055 0 34.27 28.604 62.054 63.966 62.054 0 172.851 104.926 322.014 256 391.919 0 0 0-143.701 0-143.701 0-68.403 57.412-124.109 128-124.109 0 0 128 0 128 0 70.588 0 128 55.706 128 124.109 0 0 0 143.701 0 143.701 151.074-69.905 256-219.068 256-391.919 35.362 0 64.034-27.784 64.034-62.054 0 0 0-62.055 0-62.055 0-34.269-28.672-62.054-64.034-62.054 0 0 0 0 0 0M575.966 479.326c0 0-128 0-128 0-35.362 0-63.966 27.785-63.966 62.055 0 0 0 186.163 0 186.163 0 34.27 28.604 62.123 63.966 62.123 0 0 128 0 128 0 35.362 0 64.034-27.853 64.034-62.123 0 0 0-186.163 0-186.163 0-34.27-28.672-62.055-64.034-62.055 0 0 0 0 0 0" />
<glyph unicode="&#x24;" glyph-name="icon-produce" d="M786.712-64c0 0-382.534 0-382.534 0s0 250.018 0 250.018c13.606-3.881 27.297-7.421 40.859-10.449 0 0 0-195.852 0-195.852s303.631 0 303.631 0c0 0-0.47 152.007-0.47 152.007s125.095-0.043 125.095-0.043c0 0 0 456.533 0 456.533s-296.678 0-296.678 0c0 0-9.469 0-9.469 0s-122.109 0-122.109 0c0 0 0-125.052 0-125.052-15.183 3.242-28.703 7.038-40.859 11.388 0 0 0 154.609 0 154.609s159.428 0 159.428 0c0 0 13.009 0 13.009 0s0 289.896 0 289.896c0 0-428.256 0-428.256 0s0-608.582 0-608.582c0 0 49.347 0 49.347 0 17.7-16.421 38.812-30.964 62.014-43.717 0 0-152.22 0-152.22 0s0 693.244 0 693.244c0 0 512.96 0 512.96 0s0-330.841 0-330.841c0 0 296.678 0 296.678 0s0-546.91 0-546.91c0 0-130.426-146.249-130.426-146.249s0 0 0 0M200.308 392.789c-19.619 95.495 10.705 217.475 206.301 345.3 1.749 1.108 3.668 1.663 5.63 1.663 2.986 0 5.928-1.237 7.89-3.796 3.285-4.052 2.986-9.98-0.725-13.648-69.989-70.161-101.935-179.432-80.865-242.085 7.378-21.795 28.746-38.77 63.080-50.968 11.089-4.052 23.415-7.506 37.362-10.449 6.867-1.493 13.947-2.858 21.581-4.095 0 0 0.597 103.982 0.597 103.982 0.043 4.052 2.346 7.592 5.971 9.256 3.54 1.578 7.763 1.066 10.791-1.536 0 0 243.194-206.258 243.194-206.258 2.303-2.005 3.668-4.905 3.668-7.848 0-3.071-1.407-5.886-3.753-7.805 0 0-245.711-203.7-245.711-203.7-3.113-2.516-7.293-3.071-10.918-1.365-3.54 1.706-5.801 5.246-5.801 9.256 0 0 0.683 112.469 0.683 112.469-6.739 1.365-13.521 2.687-20.302 4.265-12.497 2.73-24.951 5.929-37.362 9.512-34.291 9.852-67.729 22.86-97.371 39.153-21.24 11.601-40.519 24.865-56.641 39.921-23.969 22.392-41.072 48.536-47.299 78.776 0 0 0 0 0 0" />
<glyph unicode="&#x25;" glyph-name="icon-forms" d="M958.281 959.886c0 0-821.725 0-821.725 0s0-136.42 0-136.42c0 0-99.909 0-99.909 0-18.767 0-36.647-13.376-36.647-32.143 0 0 0-68.244 0-68.244 0-18.767 17.88-36.101 36.647-36.101 0 0 99.909 0 99.909 0s0-68.175 0-68.175c0 0-99.909 0-99.909 0-18.767 0-36.647-13.376-36.647-32.143 0 0 0-68.244 0-68.244 0-18.767 17.88-36.101 36.647-36.101 0 0 99.909 0 99.909 0s0-68.244 0-68.244c0 0-99.909 0-99.909 0-18.767 0-36.647-13.308-36.647-32.075 0 0 0-68.244 0-68.244 0-18.767 17.88-36.101 36.647-36.101 0 0 99.909 0 99.909 0s0-68.244 0-68.244c0 0-99.909 0-99.909 0-18.767 0-36.647-13.375-36.647-32.074 0 0 0-68.244 0-68.244 0-18.767 17.88-36.101 36.647-36.101 0 0 99.909 0 99.909 0s0-136.488 0-136.488c0 0 821.725 0 821.725 0 37.671 0 65.719 32.552 65.719 70.223 0 0 0 886.966 0 886.966 0 37.671-28.048 66.197-65.719 66.197 0 0 0 0 0 0M341.356 4.744c0 0-136.488 0-136.488 0s0 68.244 0 68.244c0 0 36.579 0 36.579 0 18.767 0 31.665 17.334 31.665 36.101 0 0 0 68.244 0 68.244 0 18.699-12.898 32.074-31.665 32.074 0 0-36.579 0-36.579 0s0 68.244 0 68.244c0 0 36.579 0 36.579 0 18.767 0 31.665 17.334 31.665 36.101 0 0 0 68.244 0 68.244 0 18.767-12.898 32.075-31.665 32.075 0 0-36.579 0-36.579 0s0 68.244 0 68.244c0 0 36.579 0 36.579 0 18.767 0 31.665 17.334 31.665 36.101 0 0 0 68.244 0 68.244 0 18.767-12.898 32.143-31.665 32.143 0 0-36.579 0-36.579 0s0 68.175 0 68.175c0 0 36.579 0 36.579 0 18.767 0 31.665 17.334 31.665 36.101 0 0 0 68.244 0 68.244 0 18.767-12.898 32.143-31.665 32.143 0 0-36.579 0-36.579 0s0 68.176 0 68.176c0 0 136.488 0 136.488 0s0-886.898 0-886.898c0 0 0 0 0 0" />
<glyph unicode="&#x26;" glyph-name="icon-settings" d="M883.216 565.792c0 0-25.825 62.741-25.825 62.741s60.182 138.566 54.778 143.913c0 0-79.522 79.351-79.522 79.351-5.574 5.518-141.296-57.735-141.296-57.735s-62.628 25.824-62.628 25.824c0 0-55.29 140.443-62.912 140.443 0 0-112.343 0-112.343 0-7.793 0-58.987-140.784-58.987-140.784s-62.514-25.882-62.514-25.882c0 0-138.566 60.125-143.913 54.778 0 0-79.465-79.465-79.465-79.465-5.518-5.46 57.736-141.296 57.736-141.296s-25.825-62.628-25.825-62.628c0 0-140.5-55.233-140.5-62.741 0 0 0-112.4 0-112.4 0-7.85 140.841-59.101 140.841-59.101s25.825-62.571 25.825-62.571c0 0-60.125-138.452-54.835-143.742 0 0 79.579-79.579 79.579-79.579 5.347-5.404 141.182 57.793 141.182 57.793s62.628-25.882 62.628-25.882c0 0 55.347-140.329 62.969-140.329 0 0 112.4 0 112.4 0 7.736 0 58.987 140.784 58.987 140.784s62.685 25.882 62.685 25.882c0 0 138.338-60.182 143.685-54.892 0 0 79.579 79.522 79.579 79.522 5.518 5.518-57.907 141.239-57.907 141.239s25.825 62.628 25.825 62.628c0 0 140.557 55.347 140.557 62.912 0 0 0 112.4 0 112.4 0.057 7.736-140.784 58.817-140.784 58.817s0 0 0 0M676.163 448.443c0-90.443-73.663-164.106-164.163-164.106-90.443 0-164.106 73.663-164.106 164.106 0 90.387 73.663 163.993 164.106 163.993 90.614-0.057 164.163-73.606 164.163-163.993 0 0 0 0 0 0" />
<glyph unicode="&#x28;" glyph-name="icon-half-checkbox" d="M0-64h1024v1024l-1024-1024z" />
<glyph unicode="&#x29;" glyph-name="icon-list" d="M196.123 960c-25.359-0.361-45.538-21.203-45.117-46.562 0 0 0-930.876 0-930.876-0.421-25.359 19.758-46.201 45.117-46.562 0 0 632.47 0 632.47 0 25.359 0.301 45.659 21.203 45.237 46.562 0 0 0 930.876 0 930.876 0.422 25.359-19.878 46.261-45.237 46.562 0 0-632.47 0-632.47 0s0 0 0 0M297.8 773.813c24.937 0 45.176-20.842 45.176-46.562 0.362-25.299-19.877-46.080-45.176-46.502-25.299 0.422-45.538 21.203-45.177 46.502 0 25.72 20.239 46.562 45.177 46.562 0 0 0 0 0 0M444.593 750.562c0 0 304.972 0 304.972 0 12.468 0 22.588-10.421 22.588-23.311 0.181-12.65-9.939-23.070-22.588-23.251 0 0-304.972 0-304.972 0-12.649 0.181-22.708 10.601-22.528 23.251-0.241 12.649 9.879 23.13 22.528 23.311 0 0 0 0 0 0M297.8 587.625c24.937 0 45.176-20.841 45.176-46.501 0.362-25.299-19.877-46.14-45.176-46.562-25.299 0.422-45.538 21.263-45.177 46.562 0 25.66 20.239 46.501 45.177 46.501 0 0 0 0 0 0M444.593 564.375c0 0 304.972 0 304.972 0 12.649-0.181 22.769-10.602 22.588-23.251 0.181-12.65-9.939-23.131-22.588-23.311 0 0-304.972 0-304.972 0-12.649 0.18-22.769 10.661-22.528 23.311-0.18 12.649 9.879 23.070 22.528 23.251 0 0 0 0 0 0M297.8 401.438c24.937 0 45.176-20.841 45.176-46.502 0.362-25.298-19.877-46.14-45.176-46.561-25.299 0.421-45.538 21.263-45.177 46.561 0 25.661 20.239 46.502 45.177 46.502 0 0 0 0 0 0M444.593 378.187c0 0 304.972 0 304.972 0 12.649-0.18 22.769-10.601 22.588-23.251 0.181-12.649-9.939-23.13-22.588-23.311 0 0-304.972 0-304.972 0-12.649 0.181-22.769 10.662-22.528 23.311-0.18 12.65 9.879 23.071 22.528 23.251 0 0 0 0 0 0M297.8 215.251c24.937 0 45.176-20.842 45.176-46.502 0.362-25.299-19.877-46.14-45.176-46.562-25.299 0.422-45.538 21.263-45.177 46.562 0 25.66 20.239 46.502 45.177 46.502 0 0 0 0 0 0M444.593 192c0 0 304.972 0 304.972 0 12.649-0.181 22.769-10.601 22.588-23.251 0.181-12.649-9.939-23.13-22.588-23.311 0 0-304.972 0-304.972 0-12.649 0.181-22.769 10.662-22.528 23.311-0.18 12.65 9.879 23.070 22.528 23.251 0 0 0 0 0 0" />
<glyph unicode="&#x2a;" glyph-name="icon-pdf" d="M935.68 180.467c0 0-26.3 0-26.3 0s0-204.262 0-204.262c0-22.15-19.241-40.205-42.901-40.205 0 0-708.392 0-708.392 0-23.66 0-42.9 18.055-42.9 40.205 0 0 0 204.262 0 204.262s-26.301 0-26.301 0c-33.846 0-61.386 25.761-61.386 57.451 0 0 0 298.415 0 298.415 0 31.691 27.54 57.398 61.386 57.398 0 0 26.301 0 26.301 0s0 326.117 0 326.117c0 22.097 19.24 40.152 42.9 40.152 0 0 518.737 0 518.737 0 1.671 0 3.341-0.216 4.958-0.593 0.323-0.108 0.755-0.269 1.132-0.323 1.455-0.485 2.91-1.024 4.258-1.725 0.431-0.215 0.916-0.485 1.401-0.754 1.509-0.917 2.964-2.048 4.258-3.342 0.053-0.054 0.107-0.054 0.161-0.162 0 0 211.052-225.495 211.052-225.495 3.449-3.665 5.066-8.3 5.12-12.989 0.108-0.808 0.216-1.563 0.216-2.263 0 0 0-118.623 0-118.623s26.3 0 26.3 0c33.9 0 61.386-25.707 61.386-57.398 0 0 0-298.415 0-298.415 0-31.744-27.486-57.451-61.386-57.451 0 0 0 0 0 0M158.087-12.962c0 0 708.392 0 708.392 0s0 193.429 0 193.429c0 0-708.392 0-708.392 0s0-193.429 0-193.429c0 0 0 0 0 0M685.124 385.482c0 52.925-20.965 89.897-54.219 113.017-30.935 21.774-70.386 32.014-131.287 32.014-36.595 0-71.357-2.264-97.981-6.252 0 0 0-294.481 0-294.481 18.109-2.209 44.733-4.419 82.298-4.419 62.733 0 114.149 12.45 147.887 38.696 30.935 24.468 53.302 64.027 53.302 121.425 0 0 0 0 0 0M125.319 524.261c0 0 0-295.828 0-295.828s0 0 0 0 71.788 0 71.788 0c0 0 0 107.196 0 107.196 6.629-0.862 15.252-1.347 24.684-1.347 42.846 0 79.44 9.809 104.178 31.636 19.079 16.869 29.48 41.823 29.48 71.141 0 29.373-13.743 54.326-34.169 69.417-21.45 16.007-53.302 24.037-98.034 24.037-44.194 0-75.615-2.695-97.927-6.252 0 0 0 0 0 0M866.479 694.299c0 0-189.655 0-189.655 0-11.857 0-21.45 9-21.45 20.049 0 0 0 205.5 0 205.5s-497.287 0-497.287 0c0 0 0-326.171 0-326.171s708.392 0 708.392 0c0 0 0 100.622 0 100.622s0 0 0 0M928.674 528.249c0 0-195.961 0-195.961 0s0-299.816 0-299.816c0 0 72.758 0 72.758 0s0 120.562 0 120.562c0 0 115.119 0 115.119 0s0 55.189 0 55.189c0 0-115.119 0-115.119 0s0 68.5 0 68.5c0 0 123.203 0 123.203 0s0 55.565 0 55.565c0 0 0 0 0 0M283.662 435.281c0-30.666-23.768-48.937-62.357-48.937-10.401 0-18 0.485-24.198 1.779 0 0 0 88.549 0 88.549 5.281 1.347 15.252 2.641 30.019 2.641 36.056 0 56.536-16.384 56.536-44.032 0 0 0 0 0 0M499.618 278.285c-9.001 0-19.025 0-25.169 1.348 0 0 0 196.123 0 196.123 6.144 1.347 16.654 2.695 32.822 2.695 62.248 0 101.268-32.93 100.783-95.232 0-71.573-42.792-105.365-108.436-104.934 0 0 0 0 0 0" />
<glyph unicode="&#x2b;" glyph-name="icon-xlsx" d="M919.32 593.734c0 0-25.274 0-25.274 0s0 118.644 0 118.644c0 0.698-0.139 1.443-0.233 2.234-0.046 4.701-1.582 9.356-4.887 12.987 0 0-202.891 225.559-202.891 225.559 0 0.046-0.094 0.046-0.094 0.139-1.256 1.257-2.653 2.374-4.142 3.305-0.466 0.326-0.884 0.559-1.396 0.838-1.257 0.652-2.607 1.21-4.050 1.629-0.372 0.093-0.698 0.279-1.117 0.372-1.489 0.326-3.072 0.559-4.701 0.559 0 0-498.548 0-498.548 0-22.761 0-41.286-18.013-41.286-40.169 0 0 0-326.097 0-326.097s-25.181 0-25.181 0c-32.582 0-59.020-25.693-59.020-57.391 0 0 0-298.496 0-298.496 0-31.697 26.438-57.39 59.020-57.39 0 0 25.181 0 25.181 0s0-204.288 0-204.288c0-22.156 18.525-40.169 41.286-40.169 0 0 680.773 0 680.773 0 22.761 0 41.286 18.013 41.286 40.169 0 0 0 204.288 0 204.288s25.274 0 25.274 0c32.536 0 58.927 25.693 58.927 57.39 0 0 0 298.496 0 298.496 0 31.698-26.391 57.391-58.927 57.391 0 0 0 0 0 0M171.987 919.831c0 0 477.882 0 477.882 0s0-205.451 0-205.451c0-11.078 9.309-20.061 20.666-20.061 0 0 182.225 0 182.225 0s0-100.585 0-100.585c0 0-680.773 0-680.773 0s0 326.097 0 326.097c0 0 0 0 0 0M589.965 372.317c-40.541 13.731-66.979 35.561-66.979 70.144 0 40.541 34.723 71.54 92.299 71.54 27.509 0 47.803-5.678 62.278-12.008 0 0-12.334-43.288-12.334-43.288-9.775 4.515-27.090 11.264-51.014 11.264s-35.514-10.612-35.514-22.946c0-15.128 13.777-21.83 45.288-33.42 43.055-15.546 63.349-37.376 63.349-70.842 0-39.843-31.511-73.635-98.49-73.635-27.835 0-55.389 7.028-69.12 14.429 0 0 11.171 44.358 11.171 44.358 14.894-7.354 37.701-14.755 61.207-14.755 25.367 0 38.726 10.193 38.726 25.739 0 14.755-11.544 23.227-40.867 33.42 0 0 0 0 0 0M496.595 317.719c0 0 0-45.102 0-45.102s-152.437 0-152.437 0c0 0 0 237.475 0 237.475s55.389 0 55.389 0c0 0 0-192.373 0-192.373s97.048 0 97.048 0c0 0 0 0 0 0M167.146 272.617c0 0-62.976 0-62.976 0s70.563 120.18 70.563 120.18c0 0-68.050 117.295-68.050 117.295s63.395 0 63.395 0c0 0 21.365-43.288 21.365-43.288 7.214-14.475 12.613-26.112 18.432-39.517 0 0 0.744 0 0.744 0 5.772 15.174 10.473 25.74 16.617 39.517 0 0 20.62 43.288 20.62 43.288s62.976 0 62.976 0c0 0-68.748-115.852-68.748-115.852s72.378-121.623 72.378-121.623c0 0-63.674 0-63.674 0s-22.109 43.008-22.109 43.008c-9.030 16.523-14.848 28.858-21.737 42.635 0 0-0.698 0-0.698 0-5.027-13.777-11.217-26.112-18.804-42.635 0 0-20.294-43.008-20.294-43.008s0 0 0 0M852.76-12.986c0 0-680.773 0-680.773 0s0 193.443 0 193.443c0 0 680.773 0 680.773 0s0-193.443 0-193.443c0 0 0 0 0 0M853.133 272.617c0 0-22.063 42.961-22.063 42.961-9.030 16.57-14.894 28.905-21.737 42.682 0 0-0.744 0-0.744 0-5.027-13.777-11.218-26.112-18.851-42.682 0 0-20.201-42.961-20.201-42.961s-63.022 0-63.022 0c0 0 70.609 120.18 70.609 120.18s-68.096 117.295-68.096 117.295c0 0 63.348 0 63.348 0s21.411-43.288 21.411-43.288c7.215-14.475 12.661-26.112 18.432-39.517 0 0 0.745 0 0.745 0 5.772 15.174 10.473 25.74 16.663 39.517 0 0 20.62 43.288 20.62 43.288s62.976 0 62.976 0c0 0-68.748-115.852-68.748-115.852s72.378-121.623 72.378-121.623c0 0-63.72 0-63.72 0s0 0 0 0 0 0 0 0" />
<glyph unicode="&#x2c;" glyph-name="icon-doc" d="M918.193 180.445c0 0-25.202 0-25.202 0s0-204.316 0-204.316c0-22.134-18.461-40.129-41.152-40.129 0 0-679.164 0-679.164 0-22.691 0-41.105 17.995-41.105 40.129 0 0 0 204.316 0 204.316s-25.202 0-25.202 0c-32.503 0-58.868 25.714-58.868 57.38 0 0 0 298.477 0 298.477 0 31.712 26.365 57.426 58.868 57.426 0 0 25.202 0 25.202 0s0 326.097 0 326.097c0 22.133 18.414 40.175 41.105 40.175 0 0 497.353 0 497.353 0 1.627 0 3.208-0.232 4.743-0.604 0.372-0.093 0.744-0.279 1.116-0.326 1.395-0.418 2.743-1.023 4.045-1.674 0.465-0.279 0.93-0.511 1.349-0.79 1.488-0.93 2.883-2 4.138-3.348 0-0.047 0.047-0.093 0.093-0.14 0 0 202.41-225.52 202.41-225.52 3.302-3.673 4.836-8.277 4.883-13.019 0.093-0.744 0.186-1.488 0.186-2.232 0 0 0-118.666 0-118.666s25.202 0 25.202 0c32.503 0 58.821-25.667 58.821-57.379 0 0 0-298.477 0-298.477 0-31.666-26.318-57.38-58.821-57.38 0 0 0 0 0 0M172.675-12.991c0 0 679.164 0 679.164 0s0 193.436 0 193.436c0 0-679.164 0-679.164 0s0-193.436 0-193.436c0 0 0 0 0 0M666.541 403.361c0 76.863-47.848 140.892-135.452 140.892-84.256 0-138.892-62.355-138.892-145.821 0-79.327 49.521-141.682 134.196-141.682 83.465 0 140.148 55.334 140.148 146.611 0 0 0 0 0 0M110.646 535.976c0 0 0-273.46 0-273.46 16.088-2.046 39.803-4.092 73.235-4.092 55.892 0 101.647 11.531 131.685 35.897 27.528 22.738 47.429 59.472 47.429 112.76 0 49.196-18.646 83.466-48.312 104.948-27.481 20.227-62.634 29.759-116.852 29.759-32.549 0-63.471-2.092-87.185-5.812 0 0 0 0 0 0M851.839 694.305c0 0-181.811 0-181.811 0-11.346 0-20.553 8.974-20.553 20.088 0 0 0 205.432 0 205.432s-476.8 0-476.8 0c0 0 0-326.144 0-326.144s679.164 0 679.164 0c0 0 0 100.624 0 100.624s0 0 0 0M851.606 544.253c-86.395 0-155.818-52.869-155.818-147.913 0-79.281 50.824-139.172 149.448-139.172 34.735 0 61.379 6.185 73.236 11.997 0 0-9.718 49.103-9.718 49.103-12.741-4.929-34.317-9.067-53.8-9.067-57.565 0-91.463 35.106-91.463 90.859 0 61.983 39.803 92.161 91.045 92.161 22.877 0 41.105-4.976 54.218-10.323 0 0 13.112 49.94 13.112 49.94-11.438 5.812-36.873 12.415-70.26 12.415 0 0 0 0 0 0M294.363 405.035c0-66.494-38.129-97.88-96.532-97.508-7.998 0-16.925 0-22.412 1.255 0 0 0 182.183 0 182.183 5.487 1.256 14.833 2.464 29.201 2.464 55.473 0 90.208-30.549 89.743-88.394 0 0 0 0 0 0M460.364 399.688c0 54.078 25.435 94.578 69.051 94.578 44.407 0 68.958-42.965 68.958-92.951 0-54.078-24.97-94.579-68.586-94.579-43.151 0-69.423 38.408-69.423 92.952 0 0 0 0 0 0" />
<glyph unicode="&#x2d;" glyph-name="icon-pptx" d="M898.753 180.687c0 0-24.487 0-24.487 0s0-204.464 0-204.464c-0.047-22.207-17.505-40.13-39.106-40.223 0 0-645.703 0-645.703 0-21.554 0.093-39.058 18.016-39.105 40.223 0 0 0 204.558 0 204.558s-24.487 0-24.487 0c-30.866 0-55.865 25.697-55.865 57.4 0 0 0 298.69 0 298.69 0.605 31.052 25.139 56.005 55.399 56.284 0 0 24.441 0 24.441 0s0 326.529 0 326.529c0.093 22.16 17.551 40.13 39.152 40.176 0 0 472.755 0 472.755 0 1.49 0.187 3.026 0.187 4.516 0 0 0 1.117 0 1.117 0 1.35-0.372 2.653-0.931 3.91-1.629 0 0 1.35-0.978 1.35-0.978 1.444-0.931 2.747-2.001 3.911-3.258 0 0 192.128-226.066 192.128-226.066 2.933-3.538 4.562-7.961 4.609-12.57 0.093-0.745 0.093-1.536 0-2.281 0 0 0-118.806 0-118.806s24.487 0 24.487 0c0 0 0.978 0 0.978 0 30.865 0 55.865-25.697 55.865-57.401 0 0 0-298.783 0-298.783-0.047-31.703-25.046-57.354-55.865-57.401 0 0 0 0 0 0M188.992-12.884c0 0 645.656 0 645.656 0s0 193.571 0 193.571c0 0-645.656 0-645.656 0s0-193.571 0-193.571c0 0 0 0 0 0M687.165 464.527c0 0 0 42.457 0 42.457s-167.128 0-167.128 0c0 0 0-42.457 0-42.457s58.937 0 58.937 0c0 0 0-181.002 0-181.002s48.882 0 48.882 0c0 0 0 181.002 0 181.002s59.309 0 59.309 0c0 0 0 0 0 0M414.499 362.806c25.605-1.676 50.883 6.797 70.669 23.603 13.5 14.059 20.716 33.24 19.925 52.979 0 0 0.14-0.373 0.14-0.373 0.372 20.018-8.194 39.059-23.231 51.768-14.571 12.058-36.219 17.97-66.525 17.97-22.346 0.279-44.692-1.304-66.805-4.795 0 0 0-220.061 0-220.061s48.928 0 48.928 0c0 0 0 79.887 0 79.887 5.586-0.745 11.266-1.071 16.899-0.978 0 0 0 0 0 0M161.339 503.958c0 0 0-220.433 0-220.433s48.788 0 48.788 0c0 0 0 79.887 0 79.887 5.587-0.745 11.173-1.071 16.76-0.978 25.651-1.676 50.93 6.75 70.669 23.603 13.593 14.012 20.856 33.239 20.064 52.978 0.373 20.018-8.193 39.059-23.23 51.768-14.571 12.058-36.173 17.97-66.526 17.97-22.252 0.279-44.505-1.304-66.525-4.795 0 0 0 0 0 0M834.648 695.015c0 0-172.761 0-172.761 0-10.801 0-19.6 8.985-19.6 20.065 0 0 0 205.768 0 205.768s-453.807 0-453.807 0c0 0 0.512-326.343 0.512-326.343s645.656 0 645.656 0c0 0 0 100.51 0 100.51s0 0 0 0M886.649 506.984c0 0-56.144 0-56.144 0s-18.342-40.828-18.342-40.828c-5.354-13.454-9.637-23.37-14.805-37.662 0 0-0.605 0-0.605 0-5.121 12.523-10.009 24.115-16.526 37.662 0 0-18.948 40.828-18.948 40.828s-56.47 0-56.47 0c0 0 61.126-110.426 61.126-110.426s-62.848-113.033-62.848-113.033c0 0 56.237 0 56.237 0s18.109 40.455 18.109 40.455c6.704 14.944 12.244 27.514 16.76 40.083 0 0 0.605 0 0.605 0 6.099-12.942 11.266-24.487 19.32-40.083 0 0 19.692-40.455 19.692-40.455s56.237 0 56.237 0c0 0-64.57 114.43-64.57 114.43s61.172 109.029 61.172 109.029c0 0 0 0 0 0M268.832 437.665c0 0 0.139 0.466 0.139 0.466 0-22.858-16.154-36.406-42.317-36.406-5.54-0.139-11.080 0.326-16.527 1.397 0 0 0 65.92 0 65.92 6.658 1.49 13.501 2.188 20.298 2.002 24.58 0 38.407-12.569 38.407-33.379 0 0 0 0 0 0M456.444 438.131c0-22.858-16.154-36.406-42.317-36.406-5.494-0.186-10.987 0.28-16.387 1.397 0 0 0 65.92 0 65.92 6.657 1.49 13.454 2.142 20.297 2.002 24.441 0 38.407-12.569 38.407-32.913 0 0 0 0 0 0" />
<glyph unicode="&#x2e;" glyph-name="icon-refresh" d="M642.127 680.869c0 0 84.874 30.169 84.874 30.169-58.014 44.78-128.631 70.183-201.847 72.664-163.682 5.987-310.35-101.73-348.593-256.236 0 0-176.561 41.275-176.561 41.275 58.407 235.993 282.27 400.542 532.086 391.326 149.819-5.514 287.587-71.483 383.173-182.154 0 0 101.1 35.919 101.1 35.919s-68.686-381.44-68.686-381.44c0 0-305.546 248.477-305.546 248.477s0 0 0 0M381.991 216.091c0 0-84.913-30.168-84.913-30.168 58.014-44.781 128.591-70.223 201.846-72.665 163.525-6.026 310.154 101.573 348.554 255.882 0 0 176.522-41.511 176.522-41.511-57.068-229.298-270.533-391.129-511.961-391.129-6.656 0-13.312 0.118-20.007 0.354-149.858 5.554-287.626 71.523-383.173 182.233 0 0-101.14-35.919-101.14-35.919s68.766 381.44 68.766 381.44c0 0 305.506-248.517 305.506-248.517s0 0 0 0" />
<glyph unicode="&#x2f;" glyph-name="icon-addfiles" d="M648.939 666.551c0 0-154.819 0-154.819 0s0 269.653 0 269.653c0 0 266.533-269.653 266.533-269.653s-111.714 0-111.714 0c0 0 0 0 0 0M443.798 174.69c0 151.747 121.563 274.773 271.506 274.773 23.504 0 46.324-3.023 68.072-8.68 0 0 0 146.53 0 146.53s-327.29 0-327.29 0c-22.674 0.195-40.911 18.676-40.862 41.35 0 0 0 309.687 0 309.687s-0.098 20.528-0.098 20.528c0 0-298.033 1.122-298.033 1.122-24.186-0.195-43.642-19.895-43.593-44.081 0 0 0-792.917 0-792.917 0-24.235 19.602-44.081 43.593-44.081 0 0 343.674 0 343.674 0-11.264 30.671-17.018 63.098-16.969 95.769 0 0 0 0 0 0M715.304 413.379c-130.243 0-235.861-106.837-235.861-238.689 0-131.804 105.618-238.69 235.861-238.69 130.292 0 235.91 106.886 235.91 238.69 0 131.852-105.618 238.689-235.91 238.689 0 0 0 0 0 0M845.645 140.069c0 0-96.11 0-96.11 0s0-97.28 0-97.28c0 0-68.413 0-68.413 0s0 97.28 0 97.28c0 0-96.11 0-96.11 0s0 69.241 0 69.241c0 0 96.11 0 96.11 0s0 97.28 0 97.28c0 0 68.413 0 68.413 0s0-97.28 0-97.28c0 0 96.11 0 96.11 0s0-69.241 0-69.241c0 0 0 0 0 0" />
<glyph unicode="&#x30;" glyph-name="icon-attached" d="M720.916 663.763c-18.312 0-33.009-13.674-33.009-31.383 0 0 0-464.052 0-464.052 0-47.406-17.71-86.197-51.923-119.327-34.214-33.069-74.933-50.236-124.446-50.236-48.369 0-89.691 16.565-123.844 49.694-34.214 33.069-51.321 73.066-51.321 119.869 0 0 0 612.472 0 612.472 0 31.383 11.927 58.609 34.756 81.016 23.191 22.709 51.321 34.816 84.992 34.816 33.611 0 61.741-12.107 84.872-34.816 22.889-22.407 34.816-49.633 34.816-81.016 0 0 0-521.156 0-521.156 0-32.527-25.901-57.645-59.573-57.645-32.407 0-58.97 26.263-58.97 57.645 0 0 0 271.119 0 271.119 0 17.348-14.517 31.443-32.467 31.443-17.89 0-32.407-14.095-32.407-31.443 0 0 0-271.119 0-271.119 0-33.671 11.806-62.223 35.961-85.654 24.154-23.372 53.127-34.816 87.883-34.816 34.816 0 64.030 11.746 88.486 34.816 23.913 22.588 35.96 50.838 35.96 85.654 0 0 0 521.156 0 521.156 0 49.092-18.432 91.136-54.212 126.133-36.141 35.237-79.631 53.067-130.349 53.067s-94.268-17.83-130.409-53.067c-35.78-34.997-54.212-77.041-54.212-126.133 0 0 0-612.472 0-612.472 0-64.512 23.552-119.327 70.174-164.383 46.562-45.116 103.183-67.945 169.864-67.945 66.62 0 124.446 21.685 171.61 67.343 47.224 45.658 70.234 101.617 70.234 164.985 0 0 0 464.052 0 464.052 0.241 17.107-13.854 31.142-31.563 31.383-0.301 0-0.602 0-0.903 0 0 0 0 0 0 0" />
<glyph unicode="&#x31;" glyph-name="icon-folder" d="M1011.44 585.781c-10.787 13.655-27.105 21.644-44.311 21.644 0 0-56.874 0-56.874 0 0 32.021-25.467 57.966-56.942 57.966 0 0-56.874 0-56.874 0s0 57.966 0 57.966c0 32.022-25.467 57.898-56.874 57.898 0 0-28.471 0-28.471 0s0 115.933 0 115.933c0 15.976-12.767 28.949-28.402 28.949 0 0-568.876 0-568.876 0-15.772 0-28.471-12.973-28.471-28.949 0 0 0-115.933 0-115.933s-28.471 0-28.471 0c-31.407 0-56.874-25.876-56.874-57.898 0 0 0-695.391 0-695.391 0-32.021 25.467-57.966 56.874-57.966 0 0 113.816 0 113.816 0s568.875 0 568.875 0c0 0 113.748 0 113.748 0 26.696 0 49.773 18.912 55.509 45.404 0 0 113.816 521.56 113.816 521.56 3.755 17.137-0.342 35.094-11.198 48.817 0 0 0 0 0 0M85.345 27.966c0 0-28.471 0-28.471 0s0 695.391 0 695.391c0 0 28.471 0 28.471 0s0-695.391 0-695.391c0 0 0 0 0 0M682.692 665.391c-31.476 0-56.874-25.945-56.874-57.966 0 0-341.38 0-341.38 0-26.628 0-49.773-18.845-55.509-45.336 0 0-115.113-529.958-115.113-534.123 0 0 0 0 0 0s0 869.222 0 869.222c0 0 568.876 0 568.876 0s0-231.797 0-231.797c0 0 0 0 0 0M739.565 665.391c0 0-28.471 0-28.471 0s0 57.966 0 57.966c0 0 28.471 0 28.471 0s0-57.966 0-57.966c0 0 0 0 0 0M565.12 768.692c0 0-339.468 0-339.468 0-15.703 0-28.403 13.041-28.403 29.018s12.7 28.949 28.403 28.949c0 0 339.468 0 339.468 0 15.704 0 28.403-12.973 28.403-28.949s-12.699-29.018-28.403-29.018c0 0 0 0 0 0M565.12 650.916c0 0-339.468 0-339.468 0-15.703 0-28.403 12.973-28.403 28.949s12.7 29.018 28.403 29.018c0 0 339.468 0 339.468 0 15.704 0 28.403-13.041 28.403-29.018s-12.699-28.949-28.403-28.949c0 0 0 0 0 0" />
<glyph unicode="&#x32;" glyph-name="icon-mail" d="M670.501 442.712c0 0 353.499 294.574 353.499 294.574s0-582.247 0-582.247c0 0-353.499 287.673-353.499 287.673s0 0 0 0M23.29 779.391c13.1 11.914 30.837 19.192 50.353 19.192 0 0 876.714 0 876.714 0 19.677 0 37.36-7.278 50.515-19.031 0 0-488.872-401.319-488.872-401.319s-488.71 401.158-488.71 401.158c0 0 0 0 0 0M0 155.039c0 0 0 582.031 0 582.031s353.499-294.358 353.499-294.358c0 0-353.499-287.673-353.499-287.673s0 0 0 0M512 308.148c0 0 126.747 106.206 126.747 106.206s361.963-297.323 361.963-297.323c-13.1-11.807-30.837-19.031-50.353-19.031 0 0-876.714 0-876.714 0-19.677 0-37.36 7.224-50.515 19.031 0 0 362.179 297.323 362.179 297.323s126.693-106.206 126.693-106.206c0 0 0 0 0 0" />
<glyph unicode="&#x33;" glyph-name="icon-sort" d="M856.656 541.077c0 0-689.019 0-689.019 0-13.229 0-24.726 4.567-34.648 13.859-9.607 9.134-14.489 20.158-14.489 32.758s4.882 23.466 14.489 32.758c0 0 344.588 325.689 344.588 325.689 9.765 9.292 21.261 13.859 34.648 13.859 13.229 0 24.883-4.567 34.49-13.859 0 0 344.588-325.689 344.588-325.689 9.607-9.292 14.49-20.159 14.49-32.758s-4.883-23.624-14.49-32.758c-9.764-9.292-21.261-13.859-34.647-13.859 0 0 0 0 0 0M167.637 354.923c0 0 689.019 0 689.019 0 13.386 0 24.883-4.567 34.647-13.859 9.607-9.134 14.49-20.001 14.49-32.6 0-12.757-4.883-23.624-14.49-32.758 0 0-344.588-325.847-344.588-325.847-9.607-9.134-21.261-13.859-34.49-13.859-13.387 0-24.883 4.725-34.648 13.859 0 0-344.588 325.847-344.588 325.847-9.607 9.134-14.489 20.001-14.489 32.758 0 12.599 4.882 23.466 14.489 32.6 9.922 9.292 21.419 13.859 34.648 13.859 0 0 0 0 0 0" />
<glyph unicode="&#x34;" glyph-name="icon-plan" d="M857.755 688.973c0-61.003-47.305-110.485-105.62-110.485-58.379 0-105.62 49.482-105.62 110.485 0 60.94 47.241 110.421 105.62 110.421 58.315 0 105.62-49.481 105.62-110.421 0 0 0 0 0 0M915.366 417.882c0 0-57.611 0-57.611 0s0-401.547 0-401.547c0 0 0-80.335 0-80.335s-76.815 0-76.815 0c0 0-307.257 0-307.257 0s0 80.335 0 80.335c0 0 76.814 0 76.814 0s0 180.706 0 180.706c0 0 38.407 0 38.407 0s0-180.706 0-180.706c0 0 192.036 0 192.036 0s0 260.977 0 260.977c0 0-230.443 0-230.443 0s0 40.2 0 40.2c0 0 230.443 0 230.443 0s0 100.37 0 100.37c0 0 0 80.335 0 80.335s76.815 0 76.815 0c0 0 57.611 0 57.611 0s0 381.448 0 381.448c0 0-326.462 0-326.462 0s0-281.077 0-281.077c0 0 0-40.135 0-40.135s0-80.335 0-80.335c0 0-38.407 0-38.407 0s0 80.335 0 80.335c0 0-230.443 0-230.443 0s0 40.135 0 40.135c0 0 230.443 0 230.443 0s0 281.077 0 281.077c0 0-441.683 0-441.683 0s0-281.077 0-281.077c0 0 134.426 0 134.426 0s0-40.135 0-40.135c0 0-134.426 0-134.426 0s0-240.941 0-240.941c0 0 192.036 0 192.036 0s0-40.2 0-40.2c0 0-192.036 0-192.036 0s0-260.977 0-260.977c0 0 153.629 0 153.629 0s0 180.706 0 180.706c0 0 38.407 0 38.407 0s0-180.706 0-180.706c0 0 57.611 0 57.611 0s0-80.335 0-80.335c0 0-249.647 0-249.647 0s-76.814 0-76.814 0c0 0 0 80.335 0 80.335s0 863.33 0 863.33c0 0 0 80.335 0 80.335s76.814 0 76.814 0c0 0 806.552 0 806.552 0s76.814 0 76.814 0c0 0 0-80.335 0-80.335s0-381.448 0-381.448c0 0 0-80.335 0-80.335s-76.814 0-76.814 0c0 0 0 0 0 0" />
<glyph unicode="&#x35;" glyph-name="icon-images" d="M1007.724 70.5c0 0-991.502 0-991.502 0-9 0-16.222 6.791-16.222 15.198 0 0 0 724.831 0 724.831 0 8.407 7.222 15.198 16.222 15.198 0 0 991.502 0 991.502 0 9 0 16.276-6.791 16.276-15.198 0 0 0-724.831 0-724.831 0-8.407-7.276-15.198-16.276-15.198 0 0 0 0 0 0M926.612 734.699c0 0-829.278 0-829.278 0s0-520.246 0-520.246c0 0 233.957 293.564 233.957 293.564 1.186 1.563 3.18 2.48 5.228 2.48 2.102 0.054 3.934-0.755 5.281-2.264 0 0 197.74-227.759 197.74-227.759s154.786 127.353 154.786 127.353c2.641 2.264 6.737 2.048 9.162-0.377 0 0 223.124-216.010 223.124-216.010s0 543.259 0 543.259c0 0 0 0 0 0M602.004 589.991c0 41.122 35.625 74.483 79.603 74.483 43.87 0 79.602-33.361 79.602-74.483 0-41.067-35.732-74.428-79.602-74.428-43.978 0-79.603 33.361-79.603 74.428 0 0 0 0 0 0" />
<glyph unicode="&#x36;" glyph-name="icon-contract" d="M959.966 248.004c0 0-95.983 0-95.983 0s0-246.647 0-246.647c0-11.674-6.827-22.392-17.681-27.58-4.574-2.185-9.421-3.277-14.336-3.277-6.759 0-13.517 2.116-19.183 6.212 0 0-108.817 78.575-108.817 78.575s-108.749-78.575-108.749-78.575c-9.762-7.031-22.733-8.192-33.587-2.935-10.786 5.188-17.681 15.906-17.681 27.58 0 0 0 246.647 0 246.647s-479.983 0-479.983 0c-35.157 0-63.966 27.716-63.966 61.645 0 0 0 554.94 0 554.94 0 34.065 28.604 61.644 63.966 61.644 0 0 896 0 896 0 35.225 0 64.034-27.716 64.034-61.644 0 0 0-554.94 0-554.94 0-33.929-28.809-61.645-64.034-61.645 0 0 0 0 0 0M159.949 432.938c0 0 192.034 0 192.034 0 17.681 0 32.017 13.859 32.017 30.857s-14.336 30.856-32.017 30.856c0 0-192.034 0-192.034 0-17.613 0-31.949-13.858-31.949-30.856s14.336-30.857 31.949-30.857c0 0 0 0 0 0M159.949 587.085c0 0 320.034 0 320.034 0 17.681 0 32.017 13.858 32.017 30.856 0 17.067-14.336 30.857-32.017 30.857 0 0-320.034 0-320.034 0-17.613 0-31.949-13.79-31.949-30.857 0-16.998 14.336-30.856 31.949-30.856 0 0 0 0 0 0M799.949 802.944c0 0 0 0-0.068 0 0 0-639.796 0-639.796 0-0.068 0-0.068 0-0.136 0-17.613 0-31.949-13.858-31.949-30.857s14.336-30.788 31.949-30.788c0 0 0-0.068 0-0.068s640 0 640 0c0 0 0 0.068 0 0.068 17.749 0 32.017 13.79 32.017 30.788s-14.268 30.857-32.017 30.857c0 0 0 0 0 0M860.57 489.258c0 0-34.407 10.718-34.407 10.718-9.762 3.004-17.476 10.445-20.616 19.866 0 0-11.128 33.177-11.128 33.177s-35.43-7.304-35.43-7.304c-10.104-2.116-20.548 0.614-28.126 7.304 0 0-26.897 23.348-26.897 23.348s-26.829-23.348-26.829-23.348c-7.646-6.69-18.159-9.42-28.194-7.304 0 0-35.362 7.304-35.362 7.304s-11.128-33.177-11.128-33.177c-3.208-9.489-10.854-16.862-20.684-19.866 0 0-34.407-10.718-34.407-10.718s7.578-34.133 7.578-34.133c2.116-9.694-0.615-19.729-7.578-27.102 0 0-24.235-25.873-24.235-25.873s24.235-25.873 24.235-25.873c6.963-7.373 9.694-17.476 7.578-27.17 0 0-7.578-34.065-7.578-34.065s34.407-10.718 34.407-10.718c9.83-3.072 17.476-10.445 20.684-19.866 0 0 11.060-33.245 11.060-33.245s35.43 7.372 35.43 7.372c2.253 0.478 4.506 0.683 6.69 0.683 7.919 0 15.565-2.799 21.504-7.987 0 0 26.829-23.416 26.829-23.416s26.897 23.416 26.897 23.416c7.578 6.69 18.159 9.421 28.194 7.304 0 0 35.362-7.372 35.362-7.372s11.128 33.245 11.128 33.245c3.14 9.421 10.854 16.794 20.616 19.866 0 0 34.407 10.718 34.407 10.718s-7.51 34.065-7.51 34.065c-2.184 9.694 0.615 19.797 7.51 27.17 0 0 24.303 25.873 24.303 25.873s-24.303 25.873-24.303 25.873c-6.895 7.373-9.694 17.408-7.51 27.102 0 0 7.51 34.133 7.51 34.133s0 0 0 0M703.966 309.649c-52.907 0-95.983 41.506-95.983 92.501s43.076 92.501 95.983 92.501c52.975 0 95.983-41.506 95.983-92.501s-43.008-92.501-95.983-92.501c0 0 0 0 0 0" />
<glyph unicode="&#x37;" glyph-name="icon-calendar" d="M950.877-7c0 0-877.754 0-877.754 0s-73.123 0-73.123 0c0 0 0 802.867 0 802.867s146.359-1.595 146.359-1.595c0 0 0-32.119 0-32.119 0-53.019 49.147-96.13 109.684-96.13s109.74 43.168 109.74 96.13c0 0 0 32.119 0 32.119s292.718 0 292.718 0c0 0 0-32.119 0-32.119 0-52.962 48.976-96.13 109.684-96.13 60.537 0 109.627 43.168 109.627 96.13 0 0 0 32.119 0 32.119s145.106 0 145.106 0c0 0 1.082-801.101 1.082-801.101s-73.123-0.171-73.123-0.171c0 0 0 0 0 0M950.877 569.893c0 0-877.754 0-877.754 0s0-512.939 0-512.939c0 0 877.754 0 877.754 0s0 512.939 0 512.939c0 0 0 0 0 0M298.128 263.849c0 0-115.208 0-115.208 0s0 89.069 0 89.069c0 0 115.208 0 115.208 0s0-89.069 0-89.069c0 0 0 0 0 0M298.128 112.821c0 0-115.208 0-115.208 0s0 89.125 0 89.125c0 0 115.208 0 115.208 0s0-89.125 0-89.125c0 0 0 0 0 0M481.276 411.917c0 0-115.265 0-115.265 0s0 89.125 0 89.125c0 0 115.265 0 115.265 0s0-89.125 0-89.125c0 0 0 0 0 0M481.276 263.849c0 0-115.265 0-115.265 0s0 89.069 0 89.069c0 0 115.265 0 115.265 0s0-89.069 0-89.069c0 0 0 0 0 0M481.276 112.821c0 0-115.265 0-115.265 0s0 89.125 0 89.125c0 0 115.265 0 115.265 0s0-89.125 0-89.125c0 0 0 0 0 0M667.67 411.917c0 0-115.322 0-115.322 0s0 89.125 0 89.125c0 0 115.322 0 115.322 0s0-89.125 0-89.125c0 0 0 0 0 0M667.67 263.849c0 0-115.322 0-115.322 0s0 89.069 0 89.069c0 0 115.322 0 115.322 0s0-89.069 0-89.069c0 0 0 0 0 0M667.67 112.821c0 0-115.322 0-115.322 0s0 89.125 0 89.125c0 0 115.322 0 115.322 0s0-89.125 0-89.125c0 0 0 0 0 0M840.453 411.917c0 0-115.264 0-115.264 0s0 89.125 0 89.125c0 0 115.264 0 115.264 0s0-89.125 0-89.125c0 0 0 0 0 0M840.453 263.849c0 0-115.264 0-115.264 0s0 89.069 0 89.069c0 0 115.264 0 115.264 0s0-89.069 0-89.069c0 0 0 0 0 0M840.453 112.821c0 0-115.264 0-115.264 0s0 89.125 0 89.125c0 0 115.264 0 115.264 0s0-89.125 0-89.125c0 0 0 0 0 0M766.875 711.355c-39.807 0-72.040 28.133-72.040 63.042 0 0 0 66.004 0 66.004 0 35.024 32.233 63.157 72.040 63.157 39.922 0 72.098-28.133 72.098-63.157 0 0 0-66.004 0-66.004 0-34.909-32.29-63.042-72.098-63.042 0 0 0 0 0 0M254.904 711.355c-39.808 0-71.984 28.133-71.984 63.042 0 0 0 66.004 0 66.004 0 35.024 32.176 63.157 71.984 63.157s72.040-28.133 72.097-63.157c0 0 0-66.004 0-66.004 0-34.909-32.29-63.042-72.097-63.042 0 0 0 0 0 0" />
<glyph unicode="&#x38;" glyph-name="icon-sort1" d="M856.656 541.077c0 0-689.019 0-689.019 0-13.229 0-24.726 4.567-34.648 13.859-9.607 9.134-14.489 20.158-14.489 32.758s4.882 23.466 14.489 32.758c0 0 344.588 325.689 344.588 325.689 9.765 9.292 21.261 13.859 34.648 13.859 13.229 0 24.883-4.567 34.49-13.859 0 0 344.588-325.689 344.588-325.689 9.607-9.292 14.49-20.159 14.49-32.758s-4.883-23.624-14.49-32.758c-9.764-9.292-21.261-13.859-34.647-13.859 0 0 0 0 0 0M167.637 354.923c0 0 689.019 0 689.019 0 13.386 0 24.883-4.567 34.647-13.859 9.607-9.134 14.49-20.001 14.49-32.6 0-12.757-4.883-23.624-14.49-32.758 0 0-344.588-325.847-344.588-325.847-9.607-9.134-21.261-13.859-34.49-13.859-13.387 0-24.883 4.725-34.648 13.859 0 0-344.588 325.847-344.588 325.847-9.607 9.134-14.489 20.001-14.489 32.758 0 12.599 4.882 23.466 14.489 32.6 9.922 9.292 21.419 13.859 34.648 13.859 0 0 0 0 0 0" />
<glyph unicode="&#x39;" glyph-name="icon-payment" d="M993.007 525.583c0 0-341.88 0-341.88 0s0-137.489 0-137.489c0 0-309.794 233.745-309.794 233.745s309.794 235.861 309.794 235.861c0 0 0-139.605 0-139.605s341.88 0 341.88 0c16.52 0 30.993-12.698 30.993-29.628 0 0 0-131.14 0-131.14 0-16.93-14.473-31.744-30.993-31.744 0 0 0 0 0 0M372.804 508.106c0 0 309.863-233.745 309.863-233.745s-309.863-235.861-309.863-235.861c0 0 0 139.605 0 139.605s-341.811 0-341.811 0c-16.52 0-30.993 12.698-30.993 29.628 0 0 0 131.209 0 131.209 0 16.861 14.473 31.675 30.993 31.675 0 0 341.811 0 341.811 0s0 137.489 0 137.489c0 0 0 0 0 0" />
<glyph unicode="&#x41;" glyph-name="icon-history" d="M537.6 679.104c0 0-76.8 0-76.8 0s0-261.754 0-261.754c0 0 240.64-143.75 240.64-143.75s40.96 66.755 40.96 66.755c0 0-204.8 123.173-204.8 123.173s0 215.576 0 215.576M537.6 935.738c-179.2 0-337.92-97.524-419.84-246.394 0 0-117.76 118.102-117.76 118.102s0-333.678 0-333.678c0 0 332.8 0 332.8 0s-143.36 143.75-143.36 143.75c66.56 128.292 194.56 215.576 348.16 215.576 209.92 0 384-174.519 384-384.975s-174.080-384.975-384-384.975c-168.96 0-307.2 107.812-363.52 256.682 0 0-107.52 0-107.52 0 56.32-205.336 245.76-359.326 471.040-359.326 271.36 0 486.4 220.696 486.4 487.619s-220.16 487.619-486.4 487.619" />
<glyph unicode="&#x42;" glyph-name="icon-bakara" d="M675.618-64c-46.611 0-89.85 14.57-125.982 39.385 0 0-429.136 0-429.136 0s0 984.615 0 984.615c0 0 672.429 0 672.429 0s0-583.302 0-583.302c66.605-41.432 111.289-116.829 111.289-203.306 0-131.041-102.376-237.392-228.6-237.392 0 0 0 0 0 0M208.423 520.506c0 0 60.582 0 60.582 0s0 45.648 0 45.648c0 0-60.582 0-60.582 0s0-45.648 0-45.648c0 0 0 0 0 0M207.821 669.734c0 0 60.582 0 60.582 0s0 45.889 0 45.889c0 0-60.582 0-60.582 0s0-45.889 0-45.889c0 0 0 0 0 0M270.089 849.795c0 0-60.582 0-60.582 0s0-45.768 0-45.768c0 0 60.582 0 60.582 0s0 45.768 0 45.768c0 0 0 0 0 0M688.867 849.795c0 0-387.945 0-387.945 0s0-45.768 0-45.768c0 0 387.945 0 387.945 0s0 45.768 0 45.768c0 0 0 0 0 0M690.192 715.623c0 0-390.835 0-390.835 0s0-45.889 0-45.889c0 0 390.835 0 390.835 0s0 45.889 0 45.889c0 0 0 0 0 0M690.794 566.154c0 0-390.835 0-390.835 0s0-45.648 0-45.648c0 0 390.835 0 390.835 0s0 45.648 0 45.648c0 0 0 0 0 0M675.618 363.088c-101.051 0-182.951-84.912-182.951-189.696s81.9-189.817 182.951-189.817c100.931 0 182.832 85.032 182.832 189.817s-81.901 189.696-182.832 189.696c0 0 0 0 0 0M647.194 60.658c-4.336-4.457-11.201-4.457-15.417 0 0 0-96.715 101.051-96.715 101.051-4.336 4.456-4.336 11.562 0 16.019 0 0 23.125 23.968 23.125 23.968 4.216 4.336 11.081 4.336 15.296 0 0 0 66.003-69.014 66.003-69.014s128.271 133.089 128.271 133.089c4.215 4.336 11.080 4.336 15.416 0 0 0 23.125-23.968 23.125-23.968 4.336-4.577 4.336-11.683 0-16.139 0 0-159.104-165.006-159.104-165.006s0 0 0 0" />
<glyph unicode="&#x43;" glyph-name="icon-box" d="M933.893 202.94c0 0-383.598-265.12-383.598-265.12-1.818-1.25-3.863-1.82-5.907-1.82-1.59 0-3.294 0.34-4.771 1.14-3.408 1.81-5.566 5.34-5.566 9.2 0 0 0 406.768 0 406.768 0 3.408 1.704 6.589 4.43 8.52 0 0 383.713 265.123 383.713 265.123 3.066 2.158 7.269 2.499 10.677 0.681 3.294-1.817 5.453-5.339 5.453-9.201 0 0 0-406.771 0-406.771 0-3.408-1.591-6.589-4.431-8.52 0 0 0 0 0 0M738.743 552.575c-1.817-1.136-3.862-1.817-5.907-1.817-2.158 0-4.203 0.681-6.020 2.044 0 0-380.305 278.073-380.305 278.073-2.726 2.044-4.316 5.111-4.203 8.519 0 3.294 1.704 6.475 4.43 8.406 0 0 159.824 110.411 159.824 110.411 3.521 2.385 8.178 2.385 11.7 0 0 0 391.323-270.462 391.323-270.462 2.84-1.931 4.543-5.111 4.543-8.519s-1.703-6.588-4.543-8.519c0 0-170.842-118.136-170.842-118.136s0 0 0 0M682.402 518.952c0-3.294-1.704-6.475-4.43-8.406 0 0-159.71-110.297-159.71-110.297-1.704-1.25-3.749-1.818-5.793-1.818-2.045 0-4.090 0.568-5.907 1.818 0 0-391.323 270.462-391.323 270.462-2.84 1.931-4.43 5.111-4.43 8.519s1.59 6.588 4.43 8.519c0 0 170.728 118.022 170.728 118.022 3.635 2.499 8.406 2.385 11.927-0.227 0 0 380.305-278.072 380.305-278.072 2.612-2.045 4.203-5.226 4.203-8.52 0 0 0 0 0 0M490.773 353.108c0 0 0-406.768 0-406.768 0-3.86-2.159-7.39-5.453-9.2-1.59-0.8-3.18-1.14-4.884-1.14-2.045 0-4.090 0.57-5.793 1.82 0 0-383.713 265.12-383.713 265.12-2.726 1.931-4.43 5.112-4.43 8.52 0 0 0 406.771 0 406.771 0 3.862 2.158 7.384 5.566 9.201s7.497 1.477 10.678-0.681c0 0 383.598-265.123 383.598-265.123 2.84-1.931 4.431-5.112 4.431-8.52 0 0 0 0 0 0" />
<glyph unicode="&#x44;" glyph-name="icon-buildings" d="M859.341 38.5c0 0 0 166.605 0 166.605s-69.939 0-69.939 0c0 0 0 579.277 0 579.277s234.598 0 234.598 0c0 0 0-745.882 0-745.882s-164.659 0-164.659 0c0 0 0 0 0 0M938.803 696.42c0 0-98.918 0-98.918 0s0-97.894 0-97.894c0 0 98.918 0 98.918 0s0 97.894 0 97.894c0 0 0 0 0 0M938.803 539.031c0 0-98.918 0-98.918 0s0-97.894 0-97.894c0 0 98.918 0 98.918 0s0 97.894 0 97.894c0 0 0 0 0 0M938.803 381.745c0 0-98.918 0-98.918 0s0-97.997 0-97.997c0 0 98.918 0 98.918 0s0 97.997 0 97.997c0 0 0 0 0 0M566.374 221.489c0 0-108.748 0-108.748 0s0-182.989 0-182.989c0 0-180.839 0-180.839 0s0 819.2 0 819.2c0 0 470.426 0 470.426 0s0-819.2 0-819.2c0 0-180.839 0-180.839 0s0 182.989 0 182.989c0 0 0 0 0 0M478.925 761.137c0 0-108.647 0-108.647 0s0-107.52 0-107.52c0 0 108.647 0 108.647 0s0 107.52 0 107.52c0 0 0 0 0 0M478.925 588.286c0 0-108.647 0-108.647 0s0-107.52 0-107.52c0 0 108.647 0 108.647 0s0 107.52 0 107.52c0 0 0 0 0 0M478.925 415.434c0 0-108.647 0-108.647 0s0-107.52 0-107.52c0 0 108.647 0 108.647 0s0 107.52 0 107.52c0 0 0 0 0 0M653.722 761.137c0 0-108.749 0-108.749 0s0-107.52 0-107.52c0 0 108.749 0 108.749 0s0 107.52 0 107.52c0 0 0 0 0 0M653.722 588.286c0 0-108.749 0-108.749 0s0-107.52 0-107.52c0 0 108.749 0 108.749 0s0 107.52 0 107.52c0 0 0 0 0 0M653.722 415.434c0 0-108.749 0-108.749 0s0-107.52 0-107.52c0 0 108.749 0 108.749 0s0 107.52 0 107.52c0 0 0 0 0 0M164.659 38.5c0 0-164.659 0-164.659 0s0 745.882 0 745.882c0 0 234.496 0 234.496 0s0-579.277 0-579.277c0 0-69.837 0-69.837 0s0-166.605 0-166.605c0 0 0 0 0 0M184.115 696.42c0 0-99.021 0-99.021 0s0-97.894 0-97.894c0 0 99.021 0 99.021 0s0 97.894 0 97.894c0 0 0 0 0 0M184.115 539.031c0 0-99.021 0-99.021 0s0-97.894 0-97.894c0 0 99.021 0 99.021 0s0 97.894 0 97.894c0 0 0 0 0 0M184.115 283.748c0 0 0 97.997 0 97.997s-99.021 0-99.021 0c0 0 0-97.997 0-97.997s99.021 0 99.021 0c0 0 0 0 0 0" />
<glyph unicode="&#x45;" glyph-name="icon-excel" d="M991.027 54.17c0 0-360.857 0-360.857 0s0 118.169 0 118.169c0 0 118.169 0 118.169 0s0 78.746 0 78.746c0 0-118.169 0-118.169 0s0 78.745 0 78.745c0 0 118.169 0 118.169 0s0 78.746 0 78.746c0 0-118.169 0-118.169 0s0 78.848 0 78.848c0 0 118.169 0 118.169 0s0 78.746 0 78.746c0 0-118.169 0-118.169 0s0 78.131 0 78.131c0 0 119.398 0 119.398 0s0 80.077 0 80.077c0 0-119.398 0-119.398 0s0 117.452 0 117.452c0 0 360.857 0 360.857 0 18.123 0 32.973-15.36 32.973-34.201 0 0 0-719.155 0-719.155 0-18.944-14.85-34.304-32.973-34.304 0 0 0 0 0 0M945.254 723.661c0 0-157.593 0-157.593 0s0-78.746 0-78.746c0 0 157.593 0 157.593 0s0 78.746 0 78.746c0 0 0 0 0 0M945.254 566.17c0 0-157.593 0-157.593 0s0-78.746 0-78.746c0 0 157.593 0 157.593 0s0 78.746 0 78.746c0 0 0 0 0 0M945.254 408.576c0 0-157.593 0-157.593 0s0-78.746 0-78.746c0 0 157.593 0 157.593 0s0 78.746 0 78.746c0 0 0 0 0 0M945.254 251.085c0 0-157.593 0-157.593 0s0-78.746 0-78.746c0 0 157.593 0 157.593 0s0 78.746 0 78.746c0 0 0 0 0 0M0 846.234c0 0 590.746 113.766 590.746 113.766s0-1024 0-1024c0 0-590.746 113.766-590.746 113.766s0 796.468 0 796.468c0 0 0 0 0 0M217.6 247.91c0 0 69.018 128.82 69.018 128.82 4.812 12.39 7.884 21.811 9.216 27.852 0 0 1.024 0 1.024 0 2.764-13.004 5.529-21.913 8.089-26.726 0 0 68.711-129.946 68.711-129.946s106.598 0.103 106.598 0.103c0 0-122.982 201.113-122.982 201.113s119.603 197.735 119.603 197.735c0 0-100.147 0-100.147 0s-63.386-118.477-63.386-118.477c-6.144-15.36-10.24-26.931-12.493-34.816 0 0-1.126 0-1.126 0-3.584 13.005-7.578 24.269-11.981 33.69 0 0-57.037 119.603-57.037 119.603s-109.363 0-109.363 0c0 0 116.326-199.475 116.326-199.475s-127.078-199.476-127.078-199.476c0 0 107.008 0 107.008 0s0 0 0 0" />
<glyph unicode="&#x46;" glyph-name="icon-filters-arrow" d="M634.959-64c0 0-244.959 512-244.959 512s244.959 512 244.959 512" />
<glyph unicode="&#x47;" glyph-name="icon-home" d="M0 405.14c0 0 32.044-59.616 102.093 0 0 0 37.073 31.765 37.073 31.765s0-384.804 0-384.804c0 0-0.838-23.101 21.518-23.101 27.852 0 258.119 0.279 258.119 0.279s0.373 213.314 0.373 213.314c0 0-3.633 35.118 30.18 35.118 0 0 107.123 0 107.123 0 39.962 0 37.54-35.118 37.54-35.118s-0.466-212.661-0.466-212.661c0 0 218.344 0 252.716 0 28.411 0 27.107 28.783 27.107 28.783s0 384.244 0 384.244c0 0 39.216-35.49 39.216-35.49 81.041-58.964 111.408 0 111.408 0s-503.57 459.976-503.57 459.976c0 0-520.43-462.305-520.43-462.305s0 0 0 0" />
<glyph unicode="&#x48;" glyph-name="icon-item" d="M1021.58 761.283c-1.67 12.287-10.24 22.527-22.017 26.495-11.775 3.967-24.831 0.896-33.662-7.936 0 0-100.218-100.218-100.218-100.218s-102.139 20.351-102.139 20.351c0 0-20.35 102.266-20.35 102.266s100.218 100.218 100.218 100.218c8.703 8.832 11.775 21.759 7.935 33.534-3.967 11.904-14.207 20.351-26.622 22.143-10.751 1.536-21.759 2.304-32.766 2.304-61.949 0-120.185-24.063-163.959-67.964-53.373-53.245-77.179-129.785-64.508-203.509 0 0-291.952-291.951-291.952-291.951-13.055 2.304-26.238 3.328-39.549 3.328-61.949 0-120.185-24.063-163.959-67.837-52.093-52.093-76.028-123.768-65.66-196.852 1.792-12.288 10.367-22.527 22.142-26.495 11.776-3.84 24.831-0.896 33.663 7.936 0 0 100.218 100.218 100.218 100.218s102.138-20.351 102.138-20.351c0 0 20.351-102.266 20.351-102.266s-100.218-100.218-100.218-100.218c-8.704-8.832-11.776-21.759-7.936-33.534 3.968-11.775 14.207-20.355 26.495-22.145 10.879-1.53 21.886-2.3 32.894-2.3 0 0 0 0 0 0 61.948 0 120.185 24.19 163.958 67.962 53.245 53.245 77.18 129.785 64.509 203.509 0 0 291.823 291.951 291.823 291.951 13.183-2.176 26.367-3.328 39.678-3.328 61.948 0 120.185 24.063 163.959 67.836 52.094 52.093 76.024 123.897 65.534 196.853 0 0 0 0 0 0M658.206 563.15c0 0-259.697-261.745-259.697-261.745-4.48-4.479-10.495-6.783-16.383-6.783-5.76 0-11.647 2.304-16.127 6.655-8.959 8.96-9.087 23.551-0.128 32.51 0 0 259.697 261.746 259.697 261.746 8.96 8.959 23.551 9.087 32.51 0.128 8.96-8.96 9.088-23.551 0.128-32.511 0 0 0 0 0 0" />
<glyph unicode="&#x49;" glyph-name="icon-kablan" d="M959.943 107c0 0-896 0-896 0-35.271 0-63.943 27.762-63.943 62.123 0 0 0 62.009 0 62.009 0 34.247 28.672 62.122 63.943 62.122 0 172.829 104.903 321.991 256 391.851 0 0 0-143.701 0-143.701 0-68.381 57.458-124.132 128-124.132 0 0 128 0 128 0 70.656 0 128 55.751 128 124.132 0 0 0 143.701 0 143.701 151.097-69.86 256-219.022 256-391.851 35.385 0 64.057-27.875 64.057-62.122 0 0 0-62.009 0-62.009 0-34.361-28.672-62.123-64.057-62.123 0 0 0 0 0 0M575.943 479.395c0 0-128 0-128 0-35.271 0-63.943 27.761-63.943 62.009 0 0 0 186.254 0 186.254 0 34.247 28.672 62.009 63.943 62.009 0 0 128 0 128 0 35.385 0 64.057-27.762 64.057-62.009 0 0 0-186.254 0-186.254 0-34.248-28.672-62.009-64.057-62.009 0 0 0 0 0 0" />
<glyph unicode="&#x4a;" glyph-name="icon-location" d="M512.4 960c-199.68 0-358.4-158.72-358.4-358.4 0-266.24 358.4-665.6 358.4-665.6s358.4 399.36 358.4 665.6c0 199.68-158.72 358.4-358.4 358.4 0 0 0 0 0 0M512.4 473.6c-71.68 0-128 56.32-128 128s56.32 128 128 128c71.68 0 128-56.32 128-128s-56.32-128-128-128c0 0 0 0 0 0" />
<glyph unicode="&#x4b;" glyph-name="icon-looz" d="M512.057-64c-282.832 0-512.057 229.225-512.057 512.057 0 282.718 229.225 511.943 512.057 511.943 282.718 0 511.943-229.225 511.943-511.943 0-282.832-229.225-512.057-511.943-512.057 0 0 0 0 0 0M533.568 875.093c0-0.341 0.228-0.569 0.228-0.91 0 0 0-79.671 0-79.671 0-12.065-9.788-21.739-21.739-21.739-12.065 0-21.739 9.674-21.739 21.739 0 0 0 79.671 0 79.671 0 0.341 0.114 0.569 0.114 0.91-219.095-10.926-394.485-186.202-405.525-405.297 0 0 72.955 0 72.955 0 11.951 0 21.739-9.788 21.739-21.739 0-12.065-9.788-21.739-21.739-21.739 0 0-72.955 0-72.955 0 11.040-219.095 186.316-394.258 405.411-405.298 0 0 0 76.371 0 76.371 0 11.95 9.674 21.738 21.739 21.738 11.951 0 21.739-9.788 21.739-21.738 0 0 0-76.371 0-76.371 218.981 11.040 394.257 186.203 405.297 405.298 0 0-73.524 0-73.524 0-12.065 0-21.739 9.674-21.739 21.739 0 11.951 9.674 21.739 21.739 21.739 0 0 73.524 0 73.524 0-11.040 219.095-186.43 394.371-405.525 405.297 0 0 0 0 0 0M791.019 426.318c0 0-243.679 0-243.679 0-7.398-12.064-20.146-20.487-35.283-20.487-23.332 0-42.34 18.894-42.34 42.226 0 1.821 0.911 3.414 1.139 5.122 0 0-172.204 172.203-172.204 172.203-8.536 8.422-8.536 22.194 0 30.73 8.537 8.422 22.308 8.422 30.731 0 0 0 168.675-168.675 168.675-168.675 4.438 1.594 8.991 2.846 13.999 2.846 15.137 0 27.885-8.423 35.283-20.487 0 0 243.679 0 243.679 0 12.065 0 21.739-9.788 21.739-21.739 0-12.065-9.674-21.739-21.739-21.739 0 0 0 0 0 0" />
<glyph unicode="&#x4c;" glyph-name="icon-pencil" d="M636.748 788.095c0 0 208.306-208.461 208.306-208.461s-527.277-527.681-527.277-527.681c0 0-208.187 208.466-208.187 208.466s527.158 527.676 527.158 527.676c0 0 0 0 0 0M1003.12 838.374c0 0-92.897 92.968-92.897 92.968-35.902 35.928-94.199 35.928-130.221 0 0 0-88.985-89.055-88.985-89.055s208.302-208.462 208.302-208.462c0 0 103.801 103.874 103.801 103.874 27.84 27.865 27.84 72.807 0 100.675 0 0 0 0 0 0M0.58-32.593c-3.792-17.079 11.612-32.369 28.674-28.219 0 0 232.12 56.324 232.12 56.324s-208.187 208.461-208.187 208.461c0 0-52.607-236.566-52.607-236.566s0 0 0 0" />
<glyph unicode="&#x4d;" glyph-name="icon-pie" d="M548.012 959.9c254.976-17.344 458.648-220.891 475.988-475.627 0 0-475.988 0-475.988 0s0 475.627 0 475.627c0 0 0 0 0 0M512.602-63.5c-283.039 0-512.602 229.444-512.602 512.363 0 271.116 210.653 492.85 477.313 511.037 0 0 0-546.326 0-546.326s360.724-360.363 360.724-360.363c-88.525-72.868-201.741-116.711-325.435-116.711 0 0 0 0 0 0M1024 413.574c-8.19-120.081-57.812-228.72-134.654-311.946 0 0-312.066 311.946-312.066 311.946s446.72 0 446.72 0c0 0 0 0 0 0" />
<glyph unicode="&#x4e;" glyph-name="icon-print" d="M959.943 192c0 0-128 0-128 0s0-191.943 0-191.943c0-35.385-28.558-64.057-63.943-64.057 0 0-512 0-512 0-35.385 0-64.057 28.672-64.057 64.057 0 0 0 191.943 0 191.943s-128 0-128 0c-35.271 0-63.943 28.672-63.943 64.057 0 0 0 384 0 384 0 35.271 28.672 63.943 63.943 63.943 0 0 896 0 896 0 35.385 0 64.057-28.672 64.057-63.943 0 0 0-384 0-384 0-35.385-28.672-64.057-64.057-64.057 0 0 0 0 0 0M768 384.057c0 0-512 0-512 0s0-384 0-384c0 0 512 0 512 0s0 384 0 384c0 0 0 0 0 0M896 640.057c-35.385 0-64.057-28.786-64.057-64.057 0-35.385 28.672-63.943 64.057-63.943s63.943 28.558 63.943 63.943c0 35.271-28.558 64.057-63.943 64.057 0 0 0 0 0 0M703.943 256.057c0 0-383.886 0-383.886 0s0 63.943 0 63.943c0 0 383.886 0 383.886 0s0-63.943 0-63.943c0 0 0 0 0 0M640 128.057c0 0-319.943 0-319.943 0s0 63.943 0 63.943c0 0 319.943 0 319.943 0s0-63.943 0-63.943c0 0 0 0 0 0M768 896.057c0 0-512 0-512 0s0-128 0-128c0 0-64.057 0-64.057 0s0 128 0 128c0 35.271 28.672 63.943 64.057 63.943 0 0 512 0 512 0 35.385 0 63.943-28.672 63.943-63.943 0 0 0-128 0-128s-63.943 0-63.943 0c0 0 0 128 0 128s0 0 0 0" />
<glyph unicode="&#x4f;" glyph-name="icon-user" d="M96-64c0 237.696 186.24 430.464 416 430.464s416-192.768 416-430.464c0 0-832 0-832 0s0 0 0 0M512 485.12c-126.848 0-229.504 106.368-229.504 237.44 0 131.2 102.656 237.44 229.504 237.44 126.72 0 229.504-106.24 229.504-237.44 0-131.072-102.784-237.44-229.504-237.44 0 0 0 0 0 0" />
<glyph unicode="&#x50;" glyph-name="icon-arrow-dropdown" d="M512 192c0 0-512 512-512 512s1024 0 1024 0c0 0-512-512-512-512s0 0 0 0" />
<glyph unicode="&#x52;" glyph-name="icon-paid" d="M602.767 120.5c-139.018 0-262.307 63.488-339.558 161.628 0 0-62.669-17.858-62.669-17.858s0 283.279 0 283.279c0 0 89.129 16.875 89.129 16.875s378.88-126.812 378.88-126.812c0 0 0-84.541 0-84.541s-200.622 0-200.622 0c0 0 0-21.463 0-21.463 42.353-13.517 87.654-20.808 134.84-20.808 142.951 0 278.774 67.175 355.451 170.148 0 0 65.782 0 65.782 0-21.79-202.506-202.097-360.448-421.233-360.448 0 0 0 0 0 0M935.936 627.912c0-81.756-69.878-148.029-155.976-148.029-86.18 0-155.975 66.273-155.975 148.029 0 81.675 69.795 147.948 155.893 147.948 0 0 0.082 0 0.082 0 86.18 0 155.976-66.273 155.976-147.948 0 0 0 0 0 0M133.693 374.206c0 0 0-169.165 0-169.165s-133.693 0-133.693 0c0 0 0 401.736 0 401.736s133.693 0 133.693 0c0 0 0-169.165 0-169.165s-66.846 0-66.846 0c0 0 0-63.406 0-63.406s66.846 0 66.846 0c0 0 0 0 0 0" />
<glyph unicode="&#x53;" glyph-name="icon-prices" d="M901.287 474.976c-32.775-0.216-69.971 5.93-108.244 17.466-5.498-14.986-13.908-29.002-24.797-40.754 0 0-380.794-409.364-380.794-409.364-30.727-33.099-80.536-33.099-111.263 0 0 0-253.144 271.904-253.144 271.904-30.727 32.99-30.727 86.573 0 119.564 0 0 381.010 409.472 381.010 409.472 21.131 22.964 50.025 35.578 80.212 35.255 0 0 2.157 0 2.157 0s226.299-3.342 226.299-3.342c46.683-0.647 84.309-41.185 84.956-91.317 0 0 0-0.755 0-0.755 10.458-3.989 21.239-8.302 31.912-13.045 58.327-25.983 109.538-61.13 144.9-99.080 0.647-0.647 1.294-1.294 1.941-2.049 56.92-62.316 50.67-109.861 41.83-132.502-8.84-22.748-35.793-61.022-116.975-61.453 0 0 0 0 0 0M928.671 619.229c-0.431 0.431-0.862 0.862-1.294 1.402-28.786 30.942-73.528 61.238-123.445 83.555-1.833 0.97-3.558 1.617-5.39 2.588 0 0 1.185-98.65 1.185-98.65-10.457 3.882-21.454 8.41-32.775 13.369-31.912 14.231-61.776 31.913-86.789 50.888 2.911 21.024-3.234 43.341-18.328 59.621-25.443 27.384-66.629 27.384-92.072 0-25.444-27.277-25.444-71.588-0.216-98.757 25.444-27.385 66.629-27.385 92.073 0 0.862 1.078 1.94 2.264 2.695 3.342 25.875-20.485 57.895-39.46 91.964-54.877 116.437-52.181 193.2-36.009 200.315-17.681 2.372 5.93-0.646 25.12-27.923 55.2 0 0 0 0 0 0" />
<glyph unicode="&#x54;" glyph-name="icon-import-template" d="M977.908 233.856c0 0-38.016 0-38.016 0s-101.632 0-101.632 0c0 0 0 93.184 0 93.184s132.48 0 132.48 0c0 0 7.168 0 7.168 0 25.732 0 46.592-20.864 46.592-46.592s-20.86-46.592-46.592-46.592c0 0 0 0 0 0M562.804 327.040c0 0 36.864 36.864 36.864 36.864 18.176 18.176 18.176 47.616 0 65.792s-47.616 18.176-65.792 0c0 0-116.352-116.352-116.352-116.352-0.128-0.128-0.384-0.384-0.512-0.512-0.896-0.896-1.792-1.92-2.56-2.816-0.256-0.384-0.512-0.768-0.768-1.152-0.64-0.768-1.28-1.664-1.92-2.56-0.256-0.256-0.384-0.64-0.64-0.896-0.512-1.024-1.152-1.92-1.664-2.944-0.128-0.256-0.256-0.512-0.384-0.768-0.64-1.152-1.152-2.176-1.664-3.456 0-0.128-0.128-0.256-0.128-0.384-0.512-1.28-1.024-2.56-1.408-3.84 0-0.128 0-0.384-0.128-0.512-0.384-1.28-0.64-2.56-0.896-3.84-0.128-0.384-0.128-0.896-0.256-1.28-0.128-1.024-0.384-2.176-0.512-3.328-0.128-1.536-0.256-3.072-0.256-4.608s0.128-3.072 0.256-4.608c0.128-1.152 0.384-2.304 0.512-3.456 0.128-0.384 0.128-0.768 0.256-1.152 0.256-1.28 0.512-2.56 0.896-3.84 0.128-0.256 0.128-0.384 0.128-0.512 0.384-1.28 0.896-2.56 1.408-3.84 0-0.128 0.128-0.256 0.128-0.384 0.512-1.28 1.024-2.432 1.664-3.584 0.128-0.128 0.256-0.384 0.384-0.64 0.512-1.024 1.152-1.92 1.792-2.944 0.128-0.256 0.256-0.64 0.512-0.896 0.64-0.896 1.28-1.792 1.92-2.688 0.256-0.384 0.512-0.64 0.768-1.024 0.896-1.024 1.92-2.048 2.816-3.072 0.128-0.128 0.128-0.256 0.256-0.256 0 0 116.352-116.352 116.352-116.352 9.088-9.088 20.992-13.696 32.896-13.696s23.808 4.608 32.896 13.696c18.176 18.176 18.176 47.616 0 65.792 0 0-36.864 36.864-36.864 36.864s182.4 0 182.4 0c0 0 93.056 0 93.056 0s0-126.848 0-126.848c0 0 0-124.416 0-124.416 0-25.732-20.736-46.592-46.464-46.592 0 0-744.704 0-744.704 0-25.728 0-46.592 20.86-46.592 46.464 0 0 0 931.072 0 931.072 0 25.6 20.864 46.464 46.464 46.464 0 0 356.864 0 356.864 0s0-93.056 0-93.056c0 0 0-65.792 0-65.792s0-228.992 0-228.992c0-25.728 20.864-46.592 46.592-46.592 0 0 228.992 0 228.992 0s65.792 0 65.792 0c0 0 93.056 0 93.056 0s0-149.12 0-149.12c0 0 0-49.408 0-49.408s-93.056 0-93.056 0c0 0-182.4 0-182.4 0s0 0 0 0M497.012 618.624c0 0 0 182.528 0 182.528s0 131.584 0 131.584c0 0 313.984-314.112 313.984-314.112s-131.584 0-131.584 0c0 0-182.4 0-182.4 0s0 0 0 0" />
<glyph unicode="&#x55;" glyph-name="icon-close" d="M1024.41 49.764c0 0-113.765-113.764-113.765-113.764s-398.205 398.236-398.205 398.236c0 0-398.176-398.236-398.176-398.236s-113.764 113.764-113.764 113.764c0 0 398.175 398.236 398.175 398.236s-398.175 398.206-398.175 398.206c0 0 113.764 113.794 113.764 113.794s398.176-398.236 398.176-398.236c0 0 398.205 398.236 398.205 398.236s113.765-113.794 113.765-113.794c0 0-398.206-398.206-398.206-398.206s398.206-398.236 398.206-398.236c0 0 0 0 0 0" />
<glyph unicode="&#x56;" glyph-name="icon-menu" d="M512 960c-282.767 0-512-229.233-512-512 0-282.789 229.233-512 512-512s512 229.211 512 512c0 282.767-229.233 512-512 512 0 0 0 0 0 0M229.277 354.856c-51.42 0-93.123 41.702-93.123 93.144 0 51.42 41.703 93.123 93.123 93.123 51.442 0 93.144-41.703 93.144-93.123 0-51.442-41.702-93.144-93.144-93.144 0 0 0 0 0 0M512 354.856c-51.442 0-93.144 41.702-93.144 93.144 0 51.42 41.702 93.123 93.144 93.123 51.42 0 93.123-41.703 93.123-93.123 0-51.442-41.703-93.144-93.123-93.144 0 0 0 0 0 0M794.701 354.856c-51.441 0-93.122 41.702-93.122 93.144 0 51.42 41.681 93.123 93.122 93.123s93.145-41.703 93.145-93.123c0-51.442-41.703-93.144-93.145-93.144 0 0 0 0 0 0" />
<glyph unicode="&#x57;" glyph-name="icon-not-to-summary" d="M847.411 115.742c0 0 146.492 0 146.492 0s-146.492-172.752-146.492-172.752c0 0 0 172.752 0 172.752s0 0 0 0M993.903 960c0 0 0-802.334 0-802.334s-192.271 0.12-192.271 0.12c0 0 0.362-214.796 0.362-214.796s-451.163 0-451.163 0c-19.155-4.46-38.912-6.99-59.392-6.99-144.083 0-260.939 116.616-260.939 260.457 0 125.772 89.269 230.702 208.053 255.157 0 0 0 508.386 0 508.386s755.35 0 755.35 0c0 0 0 0 0 0M895.479 832.663c0 0-558.381 0-558.381 0s0-43.731 0-43.731c0 0 558.381 0 558.381 0s0 43.731 0 43.731c0 0 0 0 0 0M895.479 716.047c0 0-558.381 0-558.381 0s0-43.731 0-43.731c0 0 558.381 0 558.381 0s0 43.731 0 43.731c0 0 0 0 0 0M895.479 557.508c0 0 0 43.731 0 43.731s-558.381 0-558.381 0c0 0 0-43.731 0-43.731s558.381 0 558.381 0c0 0 0 0 0 0M82.784 196.457c0-115.049 93.485-208.293 208.655-208.293 115.291 0 208.655 93.244 208.655 208.293s-93.364 208.415-208.655 208.415c-115.17 0-208.655-93.365-208.655-208.415 0 0 0 0 0 0M440.823 148.631c0 0-296.84 0-296.84 0s0 92.16 0 92.16c0 0 296.84 0 296.84 0s0-92.16 0-92.16c0 0 0 0 0 0" />
<glyph unicode="&#x58;" glyph-name="icon-additional-budget" d="M836.933 894.029c0 0-515.852 0-515.852 0s0 65.971 0 65.971c0 0 582.787 0 582.787 0s0-818.261 0-818.261c0 0-66.935 0-66.935 0s0 752.29 0 752.29c0 0 0 0 0 0M221.763 855.265c0 0 582.907 0 582.907 0s0-818.261 0-818.261c0 0-66.935 0.12-66.935 0.12s0 752.29 0 752.29c0 0-515.972 0-515.972 0s0 65.851 0 65.851c0 0 0 0 0 0M121 754.261c0 0 66.934 0 66.934 0s515.973 0 515.973 0c0 0 0-752.29 0-752.29s0-65.971 0-65.971c0 0-582.907 0.72-582.907 0.72s0 817.541 0 817.541c0 0 0 0 0 0" />
<glyph unicode="&#x59;" glyph-name="icon-delete" d="M102.5 773.325c0 0 0 101.581 0 101.581 0 17.92 15.565 32.358 34.714 32.358 0 0 238.182 0 238.182 0s0 41.984 0 41.984c0 5.939 5.222 10.752 11.571 10.752 0 0 250.163 0 250.163 0 6.452 0 11.674-4.813 11.674-10.752 0 0 0-41.984 0-41.984s238.182 0 238.182 0c19.149 0 34.714-14.438 34.714-32.358 0 0 0-101.581 0-101.581s-819.2 0-819.2 0c0 0 0 0 0 0M825.546-14.643c-1.228-27.547-25.6-49.357-55.296-49.357 0 0-516.3 0-516.3 0-29.696 0-54.068 21.81-55.296 49.357 0 0-36.864 725.299-36.864 725.299s700.62 0 700.62 0c0 0-36.864-725.299-36.864-725.299s0 0 0 0M395.262 530.534c0 11.572-10.036 20.89-22.426 20.89 0 0-35.942 0-35.942 0-12.391 0-22.528-9.318-22.528-20.89 0 0 0-414.412 0-414.412 0-11.572 10.137-20.89 22.528-20.89 0 0 35.942 0 35.942 0 12.39 0 22.426 9.318 22.426 20.89 0 0 0 414.412 0 414.412s0 0 0 0M552.548 530.534c0 11.572-10.035 20.89-22.528 20.89 0 0-35.84 0-35.84 0-12.493 0-22.528-9.318-22.528-20.89 0 0 0-414.412 0-414.412 0-11.572 10.035-20.89 22.528-20.89 0 0 35.84 0 35.84 0 12.493 0 22.528 9.318 22.528 20.89 0 0 0 414.412 0 414.412s0 0 0 0M709.732 530.534c0 11.572-10.035 20.89-22.426 20.89 0 0-35.942 0-35.942 0-12.39 0-22.426-9.318-22.426-20.89 0 0 0-414.412 0-414.412 0-11.572 10.036-20.89 22.426-20.89 0 0 35.942 0 35.942 0 12.391 0 22.426 9.318 22.426 20.89 0 0 0 414.412 0 414.412s0 0 0 0" />
<glyph unicode="&#x5a;" glyph-name="icon-save" d="M0-9.518c0 0 0 106.496 0 106.496s0 237.715 0 237.715c0 0 187.099 0 187.099 0s0-237.715 0-237.715c0 0 649.655 0 649.655 0s0 237.715 0 237.715c0 0 187.246 0 187.246 0s0-237.715 0-237.715c0 0 0-106.496 0-106.496s0-53.982 0-53.982c0 0-1024 0-1024 0s0 53.982 0 53.982c0 0 0 0 0 0M658.578 960.21c0 0 0-374.637 0-374.637s254.976 0 254.976 0c0 0-401.993-357.084-401.993-357.084s-401.262 357.084-401.262 357.084c0 0 255.123 0 255.123 0s0 374.637 0 374.637c0 0 293.156 0 293.156 0s0 0 0 0" />
<glyph unicode="&#x5b;" glyph-name="icon-dropdown-arrow-shadowed" d="M512.024 5c0 0-512.024 886.836-512.024 886.836s1024 0 1024 0c0 0-511.976-886.836-511.976-886.836" />
<glyph unicode="&#x5c;" glyph-name="icon-phone" d="M1023.897 151.918c2.34-16.092-3.365-32.329-15.214-43.447 0 0-144.165-143.141-144.165-143.141-7.168-7.753-15.872-14.043-25.453-18.432-10.533-5.12-20.773-8.338-30.94-9.801-0.658 0-2.852-0.146-6.509-0.512-4.682-0.439-9.363-0.585-14.044-0.585-13.751 0-35.986 2.414-66.706 7.095s-68.242 16.238-112.713 34.67c-44.471 18.432-94.867 46.153-151.26 83.017-56.32 36.864-116.297 87.479-179.931 151.844-45.714 44.325-87.698 92.16-125.733 143.214-29.769 40.082-56.612 82.286-80.237 126.318-18.14 33.719-33.354 68.973-45.495 105.252-8.924 26.551-15.799 53.76-20.627 81.335-3.218 17.701-4.681 35.694-4.315 53.687 0.731 13.093 1.097 20.261 1.097 21.723 1.39 10.094 4.681 20.407 9.728 30.94 5.047 10.459 11.191 18.944 18.432 25.454 0 0 144.165 144.31 144.165 144.31 8.996 9.582 21.504 15.068 34.669 15.141 9.436 0 17.774-2.706 24.942-8.119 7.241-5.412 13.385-12.068 18.432-20.041 0 0 116.005-220.233 116.005-220.233 6.509-11.557 8.484-25.088 5.412-37.961-2.56-13.166-8.996-25.235-18.432-34.743 0 0-53.101-53.102-53.101-53.102-1.756-2.048-3.072-4.462-3.804-7.095-0.951-2.633-1.536-5.339-1.609-8.119 2.853-15.14 9.362-32.548 19.529-52.077 8.631-17.335 22.016-38.473 40.082-63.415 18.067-24.942 43.74-53.687 76.947-86.236 32.548-33.28 61.44-59.099 86.747-77.604 25.308-18.432 46.446-31.964 63.415-40.668 16.969-8.63 29.989-13.897 39.058-15.725 0 0 13.532-2.707 13.532-2.707 2.413 0.22 4.754 0.805 7.021 1.61 2.56 0.731 4.974 2.048 7.022 3.803 0 0 61.806 62.976 61.806 62.976 12.434 11.337 28.745 17.554 45.568 17.335 12.288 0 22.016-2.194 29.257-6.51 0 0 1.097 0 1.097 0s209.189-123.684 209.189-123.684c15.213-9.363 24.21-21.358 27.136-35.767 0 0 0 0 0 0" />
<glyph unicode="&#x5d;" glyph-name="icon-back" d="M906.162 103.603c0 0-89.098 75.391-89.098 75.391-6.854-8.666-14.338-17.095-22.058-25.13-126.754-132.19-338.116-132.19-464.87 0 0 0-0.393 2.363-0.393 2.363s-5.672 3.23-5.672 3.23c-10.32 11.029-19.931 22.688-28.912 34.898-9.769 12.054-17.883 25.446-24.106 39.705 0 0-0.394 3.151-0.394 3.151s-3.545 7.484-3.545 7.484c-61.605 129.984-36.317 286.122 63.022 388.612 53.963 56.326 126.439 91.146 204.115 98 0 0-40.808-97.921-40.808-97.921s342.291 41.831 342.291 41.831c0 0-206.241 284.783-206.241 284.783s-45.533-109.344-45.533-109.344c-125.179 6.46-245.709-40.965-335.359-133.371-133.056-137.232-167.719-345.915-86.971-520.645 4.49-13.392 15.756-40.019 42.777-75.548 14.574-19.143 27.257-34.347 37.419-44.904 3.23-3.23 6.145-6.066 8.823-8.429 171.658-176.542 455.417-175.518 625.814 2.127 10.477 10.714 20.403 22.058 29.699 33.717 0 0 0 0 0 0" />
<glyph unicode="&#x5e;" glyph-name="icon-contractor-history" d="M340.992 608.312c0 0 0 158.631 0 158.631 0 32.946 27.514 59.882 61.173 59.882 0 0 104.982 0 104.982 0 33.659 0 61.173-26.936 61.173-59.882 0 0 0-158.631 0-158.631 0-32.946-27.514-59.926-61.173-59.926 0 0-104.982 0-104.982 0-33.659 0-61.173 26.98-61.173 59.926 0 0 0 0 0 0M585.862 262.2c0 130.805 108.276 236.811 241.842 236.811 0 0 4.496-0.089 4.496-0.089-33.792 101.822-109.301 185.255-206.803 230.846 0 0 0-121.456 0-121.456 0-63.844-53.026-115.801-118.25-115.801 0 0-104.982 0-104.982 0-65.224 0-118.25 51.957-118.25 115.801 0 0 0 121.456 0 121.456-133.788-62.509-226.17-196.163-226.17-350.965 0 0 7.479 0 7.479 0-35.884 0-65.224-28.761-65.224-63.889 0 0 0-36.73 0-36.73 0-35.128 29.34-63.889 65.224-63.889 0 0 525.624 0 525.624 0-3.295 15.761-4.986 31.788-4.986 47.905 0 0 0 0 0 0M1024 262.2c0-106.139-87.886-192.2-196.296-192.2s-196.297 86.061-196.297 192.2c0 106.14 87.886 192.245 196.297 192.245s196.296-86.105 196.296-192.245c0 0 0 0 0 0M974.937 262.2c0 79.516-66.070 144.162-147.233 144.162-81.208 0-147.234-64.646-147.234-144.162s66.026-144.161 147.234-144.161c81.163 0 147.233 64.646 147.233 144.161 0 0 0 0 0 0M925.83 286.242c0 0-73.595 0-73.595 0s0 72.081 0 72.081c-0.133 13.401-11.13 24.175-24.531 24.042-13.401 0.133-24.398-10.641-24.532-24.042 0 0 0-96.123 0-96.123 0-13.267 10.997-24.041 24.532-24.041 0 0 98.126 0 98.126 0 13.445-0.134 24.442 10.596 24.576 24.041-0.134 13.446-11.131 24.176-24.576 24.042 0 0 0 0 0 0" />
<glyph unicode="&#x5f;" glyph-name="icon-contractor-double" d="M340.992 608.312c0 0 0 158.631 0 158.631 0 32.946 27.514 59.882 61.173 59.882 0 0 104.982 0 104.982 0 33.614 0 61.173-26.936 61.173-59.882 0 0 0-158.631 0-158.631 0-32.946-27.559-59.926-61.173-59.926 0 0-104.982 0-104.982 0-33.659 0-61.173 26.98-61.173 59.926 0 0 0 0 0 0M827.704 499.011c0 0 4.496-0.089 4.496-0.089-33.792 101.822-109.301 185.255-206.803 230.846 0 0 0-121.456 0-121.456 0-63.888-53.070-115.801-118.25-115.801 0 0-104.982 0-104.982 0-65.224 0-118.294 51.913-118.294 115.801 0 0 0 121.456 0 121.456-133.744-62.509-226.126-196.163-226.126-350.965 0 0 7.479 0 7.479 0-35.884 0-65.224-28.761-65.224-63.933 0 0 0-36.686 0-36.686 0-35.128 29.34-63.889 65.224-63.889 0 0 525.624 0 525.624 0-3.295 15.761-4.986 31.788-4.986 47.905 0 130.805 108.276 236.811 241.842 236.811 0 0 0 0 0 0M1024 262.2c0-106.139-87.886-192.2-196.296-192.2s-196.297 86.061-196.297 192.2c0 106.14 87.886 192.245 196.297 192.245s196.296-86.105 196.296-192.245c0 0 0 0 0 0M857.444 193.726c0 0.801-0.668 1.469-1.469 1.469 0 0-56.543 0-56.543 0-0.801 0-1.469-0.668-1.469-1.469 0 0 0-46.659 0-46.659 0-0.801 0.668-1.425 1.469-1.425 0 0 56.543 0 56.543 0 0.801-0.044 1.469 0.624 1.469 1.425 0 0 0 46.659 0 46.659s0 0 0 0M858.958 377.334c0 0.801-0.668 1.469-1.469 1.424 0 0-59.57 0-59.57 0-0.802 0.045-1.47-0.623-1.47-1.424 0 0 0-151.597 0-151.597 0-0.801 0.668-1.425 1.47-1.425 0 0 59.57 0 59.57 0 0.801-0.044 1.469 0.624 1.469 1.425 0 0 0 151.597 0 151.597s0 0 0 0" />
<glyph unicode="&#x60;" glyph-name="icon-unlock" d="M295.252-64c0 0 0 610.076 0 610.076s700.359 0 700.359 0c0 0 0-610.076 0-610.076s-700.359 0-700.359 0c0 0 0 0 0 0M417.563 736.711c0 87.097-72.306 157.924-161.223 157.924-88.86 0-161.166-70.827-161.166-157.924 0 0 0-190.635 0-190.635s-66.674 0-66.674 0c0 0 0 190.635 0 190.635 0 123.108 102.229 223.289 227.84 223.289 125.668 0 227.897-100.181 227.897-223.289 0 0 0-125.269 0-125.269s-66.674 0-66.674 0c0 0 0 125.269 0 125.269s0 0 0 0" />
<glyph unicode="&#x61;" glyph-name="icon-plus" d="M1024 345.6c0 0-409.6 0-409.6 0s0-409.6 0-409.6c0 0-204.8 0-204.8 0s0 409.6 0 409.6c0 0-409.6 0-409.6 0s0 204.8 0 204.8c0 0 409.6 0 409.6 0s0 409.6 0 409.6c0 0 204.8 0 204.8 0s0-409.6 0-409.6c0 0 409.6 0 409.6 0s0-204.8 0-204.8c0 0 0 0 0 0" />
<glyph unicode="&#x62;" glyph-name="icon-bill" d="M697.6 950.4l-44.8-41.6c-3.2-3.2-9.6-3.2-12.8 0l-57.6 51.2-57.6-51.2c-3.2-3.2-9.6-3.2-12.8 0l-57.6 51.2-57.6-51.2c-3.2-3.2-9.6-3.2-12.8 0l-44.8 41.6v-70.4c0 0 0-3.2 0-3.2v-339.2h361.6l-3.2 412.8zM636.8 601.6h-236.8c-6.4 0-9.6 3.2-9.6 9.6s3.2 9.6 9.6 9.6h236.8c6.4 0 9.6-3.2 9.6-9.6 3.2-3.2-3.2-9.6-9.6-9.6zM636.8 710.4h-236.8c-6.4 0-9.6 3.2-9.6 9.6s3.2 9.6 9.6 9.6h236.8c6.4 0 9.6-3.2 9.6-9.6 3.2-6.4-3.2-9.6-9.6-9.6zM636.8 822.4h-236.8c-6.4 0-9.6 3.2-9.6 9.6s3.2 9.6 9.6 9.6h236.8c6.4 0 9.6-3.2 9.6-9.6s-3.2-9.6-9.6-9.6zM812.8 828.8h-92.8v-41.6h67.2c6.4 0 9.6-3.2 9.6-9.6v-265.6c0-6.4-3.2-9.6-9.6-9.6h-537.6c-6.4 0-9.6 3.2-9.6 9.6v265.6c0 6.4 3.2 9.6 9.6 9.6h67.2v41.6h-92.8c-35.2 0-64-28.8-64-64v-758.4c0-38.4 32-70.4 70.4-70.4h576c38.4 0 70.4 32 70.4 70.4v758.4c0 35.2-28.8 64-64 64zM380.8 51.2c0-6.4-3.2-9.6-9.6-9.6h-121.6c-6.4 0-9.6 3.2-9.6 9.6v73.6c0 6.4 3.2 9.6 9.6 9.6h121.6c6.4 0 9.6-3.2 9.6-9.6v-73.6zM380.8 201.6c0-6.4-3.2-9.6-9.6-9.6h-121.6c-6.4 0-9.6 3.2-9.6 9.6v73.6c0 6.4 3.2 9.6 9.6 9.6h121.6c6.4 0 9.6-3.2 9.6-9.6v-73.6zM380.8 352c0-6.4-3.2-9.6-9.6-9.6h-121.6c-6.4 0-9.6 3.2-9.6 9.6v73.6c0 6.4 3.2 9.6 9.6 9.6h121.6c6.4 0 9.6-3.2 9.6-9.6v-73.6zM588.8 51.2c0-6.4-3.2-9.6-9.6-9.6h-121.6c-6.4 0-9.6 3.2-9.6 9.6v73.6c0 6.4 3.2 9.6 9.6 9.6h121.6c6.4 0 9.6-3.2 9.6-9.6v-73.6zM588.8 201.6c0-6.4-3.2-9.6-9.6-9.6h-121.6c-6.4 0-9.6 3.2-9.6 9.6v73.6c0 6.4 3.2 9.6 9.6 9.6h121.6c6.4 0 9.6-3.2 9.6-9.6v-73.6zM588.8 352c0-6.4-3.2-9.6-9.6-9.6h-121.6c-6.4 0-9.6 3.2-9.6 9.6v73.6c0 6.4 3.2 9.6 9.6 9.6h121.6c6.4 0 9.6-3.2 9.6-9.6v-73.6zM800 51.2c0-6.4-3.2-9.6-9.6-9.6h-121.6c-6.4 0-9.6 3.2-9.6 9.6v73.6c0 6.4 3.2 9.6 9.6 9.6h121.6c6.4 0 9.6-3.2 9.6-9.6v-73.6zM800 201.6c0-6.4-3.2-9.6-9.6-9.6h-121.6c-6.4 0-9.6 3.2-9.6 9.6v73.6c0 6.4 3.2 9.6 9.6 9.6h121.6c6.4 0 9.6-3.2 9.6-9.6v-73.6zM800 352c0-6.4-3.2-9.6-9.6-9.6h-121.6c-6.4 0-9.6 3.2-9.6 9.6v73.6c0 6.4 3.2 9.6 9.6 9.6h121.6c6.4 0 9.6-3.2 9.6-9.6v-73.6z" />
<glyph unicode="&#x63;" glyph-name="icon-eye-unactive" d="M122.79 617.474c44.744 42.962 97.6 71.573 169.441 111.148 95.283 52.321 223.634 63.195 330.771 38.684 0 0-115.694-109.188-115.694-109.188-1.337 0-2.585 0.357-3.833 0.357-114.803 0-207.768-91.272-213.472-205.451 0 0-175.948-166.143-175.948-166.143s-67.295 58.828-67.295 58.828c0 0-46.26 68.988-46.26 105.087 0 36.455 46.705 106.068 46.705 106.068s37.258 23.62 75.585 60.61c0 0 0 0 0 0M953.862 335.28c0 0-93.144-90.648-221.851-159.904-100.096-53.836-215.701-56.866-299.129-46.438 0 0 106.959 100.987 106.959 100.987 84.587 14.618 151.971 78.794 171.759 162.133 0 0 208.481 196.804 208.481 196.804 18.183-15.865 29.503-26.561 29.503-26.561s42.962-38.684 63.376-65.78c16.040-21.214 14.26-74.515 1.42-90.915-19.25-23.977-60.518-70.326-60.518-70.326s0 0 0 0M913.396 747.251c0 0-691.758-683.201-691.758-683.201-23.264-23.086-60.699-22.64-83.517 0.802-22.818 23.531-22.462 61.145 0.802 84.141 0 0 691.758 683.29 691.758 683.29 23.263 22.997 60.699 22.462 83.517-0.98s22.461-61.056-0.802-84.052c0 0 0 0 0 0" />
<glyph unicode="&#x64;" glyph-name="icon-triangle-warning" d="M2.777 5.639c0 0-2.277 10.134-2.277 10.134 0 5.010 1.822 10.020 5.010 14.233 0 0 489.051 865.147 489.051 865.147 4.555 5.466 11.045 8.768 17.991 8.768s13.55-3.302 17.763-8.768c0 0 489.162-865.147 489.162-865.147 5.47-7.059 6.61-16.396 2.74-24.367-3.65-7.515-11.16-12.297-19.48-12.639 0 0-980.489 0-980.489 0-8.198 0.342-15.827 5.124-19.471 12.639 0 0 0 0 0 0M562.652 581.91c0 0-99.517 0-99.517 0s0-323.263 0-323.263c0 0 99.517 0 99.517 0s0 323.263 0 323.263c0 0 0 0 0 0M512.211 78.627c32.109 0 53.060 21.862 53.060 50.215 0 27.783-20.382 50.327-51.694 50.327-33.476 0-53.745-22.544-53.745-50.327 0.57-28.353 20.269-50.215 52.379-50.215 0 0 0 0 0 0" />
<glyph unicode="&#x65;" glyph-name="icon-eye" d="M512 797.182c-232.727 0-432.873-144.291-512-349.091 79.127-204.8 279.273-349.091 512-349.091s432.873 144.291 512 349.091c-79.127 204.8-279.273 349.091-512 349.091 0 0 0 0 0 0M512 215.364c-130.327 0-232.727 102.4-232.727 232.727s102.4 232.727 232.727 232.727c130.327 0 232.727-102.4 232.727-232.727s-102.4-232.727-232.727-232.727c0 0 0 0 0 0M512 587.727c-79.127 0-139.636-60.509-139.636-139.636s60.509-139.636 139.636-139.636c79.127 0 139.636 60.509 139.636 139.636s-60.509 139.636-139.636 139.636c0 0 0 0 0 0" />
<glyph unicode="&#x66;" glyph-name="icon-arrow-import" d="M171 305.892c0 0 0 0 0 0s273.749 0 273.749 0c0 0 0 654.108 0 654.108s135.168 0 135.168 0c0 0 0-654.108 0-654.108s273.75 0 273.75 0c0 0-341.334-369.892-341.334-369.892s0 0 0 0-341.333 369.892-341.333 369.892c0 0 0 0 0 0" />
<glyph unicode="&#x67;" glyph-name="icon-calculator" d="M860.8 960h-684.8c-35.2 0-67.2-25.6-67.2-60.8v-288h819.2v288c0 35.2-28.8 60.8-67.2 60.8zM822.4 681.6h-608v188.8h608v-188.8zM108.8-3.2c0-32 28.8-60.8 67.2-60.8h684.8c38.4 0 67.2 25.6 67.2 60.8v598.4h-819.2v-598.4zM723.2 518.4c0 9.6 9.6 16 19.2 16h60.8c9.6 0 19.2-6.4 19.2-16v-54.4c0-9.6-9.6-16-19.2-16h-60.8c-9.6 0-19.2 6.4-19.2 16v54.4zM723.2 377.6c0 9.6 9.6 16 19.2 16h60.8c9.6 0 19.2-6.4 19.2-16v-54.4c0-9.6-9.6-16-19.2-16h-60.8c-9.6 0-19.2 6.4-19.2 16v54.4zM723.2 236.8c0 9.6 9.6 16 19.2 16h60.8c9.6 0 19.2-6.4 19.2-16v-195.2c0-9.6-9.6-16-19.2-16h-60.8c-9.6 0-19.2 6.4-19.2 16v195.2zM524.8 518.4c0 9.6 9.6 16 19.2 16h60.8c9.6 0 19.2-6.4 19.2-16v-54.4c0-9.6-9.6-16-19.2-16h-60.8c-9.6 0-19.2 6.4-19.2 16v54.4zM524.8 377.6c0 9.6 9.6 16 19.2 16h60.8c9.6 0 19.2-6.4 19.2-16v-54.4c0-9.6-9.6-16-19.2-16h-60.8c-9.6 0-19.2 6.4-19.2 16v54.4zM524.8 236.8c0 9.6 9.6 16 19.2 16h60.8c9.6 0 19.2-6.4 19.2-16v-54.4c0-9.6-9.6-16-19.2-16h-60.8c-9.6 0-19.2 6.4-19.2 16v54.4zM524.8 96c0 9.6 9.6 16 19.2 16h60.8c9.6 0 19.2-6.4 19.2-16v-54.4c0-9.6-9.6-16-19.2-16h-60.8c-9.6 0-19.2 6.4-19.2 16v54.4zM368 518.4c0 9.6 9.6 16 19.2 16h60.8c9.6 0 19.2-6.4 19.2-16v-54.4c0-9.6-9.6-16-19.2-16h-60.8c-9.6 0-19.2 6.4-19.2 16v54.4zM368 377.6c0 9.6 9.6 16 19.2 16h60.8c9.6 0 19.2-6.4 19.2-16v-54.4c0-9.6-9.6-16-19.2-16h-60.8c-9.6 0-19.2 6.4-19.2 16v54.4zM368 236.8c0 9.6 9.6 16 19.2 16h60.8c9.6 0 19.2-6.4 19.2-16v-54.4c0-9.6-9.6-16-19.2-16h-60.8c-9.6 0-19.2 6.4-19.2 16v54.4zM368 96c0 9.6 9.6 16 19.2 16h60.8c9.6 0 19.2-6.4 19.2-16v-54.4c0-9.6-9.6-16-19.2-16h-60.8c-9.6 0-19.2 6.4-19.2 16v54.4zM214.4 518.4c0 9.6 9.6 16 19.2 16h60.8c9.6 0 19.2-6.4 19.2-16v-54.4c0-9.6-9.6-16-19.2-16h-60.8c-9.6 0-19.2 6.4-19.2 16v54.4zM214.4 377.6c0 9.6 9.6 16 19.2 16h60.8c9.6 0 19.2-6.4 19.2-16v-54.4c0-9.6-9.6-16-19.2-16h-60.8c-9.6 0-19.2 6.4-19.2 16v54.4zM214.4 236.8c0 9.6 9.6 19.2 19.2 19.2h60.8c9.6 0 19.2-6.4 19.2-16v-54.4c0-9.6-9.6-16-19.2-16h-60.8c-9.6 0-19.2 6.4-19.2 16v51.2zM214.4 96c0 9.6 9.6 16 19.2 16h60.8c9.6 0 19.2-6.4 19.2-16v-54.4c0-9.6-9.6-16-19.2-16h-60.8c-9.6 0-19.2 6.4-19.2 16v54.4z" />
<glyph unicode="&#x68;" glyph-name="icon-checkbox" d="M0 959.77c0 0 0-1023.27 0-1023.27s1024 0 1024 0c0 0 0 1023.27 0 1023.27s-1024 0-1024 0c0 0 0 0 0 0M951.912 4.787c0 0-879.093 0-879.093 0s0 882.895 0 882.895c0 0 879.093 0 879.093 0s0-882.895 0-882.895c0 0 0 0 0 0" />
<glyph unicode="&#x69;" glyph-name="icon-check" d="M0 960c341.299 0 682.701 0 1024 0 0-341.299 0-682.701 0-1024-341.299 0-682.701 0-1024 0 0 341.299 0 682.701 0 1024 0 0 0 0 0 0M737.28 724.48c-71.598-117.35-225.997-212.992-317.44-317.44-30.843 20.562-125.42 121.754-153.6 153.6-19.128-6.39-9.277-0.758-20.48-10.24-50.156-15.544-68.321-60.785-102.4-92.16 6.39-19.128 0.758-9.277 10.24-20.48 16.855-54.968 228.065-263.393 296.96-266.24 102.4 105.8 204.8 211.64 307.2 317.44 41.513 41.513 110.469 74.67 122.88 143.36-45.67 43.192-52.081 91.034-143.36 92.16 0 0 0 0 0 0" />
<glyph unicode="&#x6a;" glyph-name="icon-resources" d="M0 450.652c0 0 144.392 79.427 144.392 79.427s367.608-202.486 367.608-202.486c0 0 367.729 202.486 367.729 202.486s144.271-79.427 144.271-79.427c0 0-512-282.155-512-282.155s-512 282.155-512 282.155c0 0 0 0 0 0M0 677.966c0 0 512 282.034 512 282.034s512-282.034 512-282.034c0 0-512-282.034-512-282.034s-512 282.034-512 282.034c0 0 0 0 0 0M512 94.976c0 0 367.729 202.485 367.729 202.485s144.271-79.427 144.271-79.427c0 0-512-282.034-512-282.034s-512 282.034-512 282.034c0 0 144.392 79.427 144.392 79.427s367.608-202.485 367.608-202.485c0 0 0 0 0 0" />
<glyph unicode="&#x6b;" glyph-name="icon-circle-warning" d="M486.224 329.883c0 0-24.444 247.855-24.444 247.855s0 113.694 0 113.694c0 0 101.188 0 101.188 0s0-113.694 0-113.694c0 0-23.876-247.855-23.876-247.855s-52.868 0-52.868 0M465.759 204.251c0 0 0 93.229 0 93.229s93.798 0 93.798 0c0 0 0-93.798 0-93.798s-93.798 0.569-93.798 0.569M512.374 959.752c-393.838 0-639.987-426.355-443.068-767.439s689.217-341.084 886.136 0c44.91 77.767 68.558 165.994 68.558 255.813 0 282.588-229.038 511.626-511.626 511.626 0 0 0 0 0 0M512.374 50.195c-306.35 0-497.755 331.59-344.608 596.896s536.070 265.307 689.217 0c34.961-60.485 53.322-129.1 53.322-198.965 0-219.772-178.159-397.931-397.931-397.931 0 0 0 0 0 0" />
<glyph unicode="&#x6c;" glyph-name="icon-star" d="M511.94 930.225c0 0 158.233-317.431 158.233-317.431s353.827-50.857 353.827-50.857c0 0-256.090-247.052-256.090-247.052s60.497-348.885 60.497-348.885c0 0-316.467 164.741-316.467 164.741s-316.468-164.741-316.468-164.741c0 0 60.498 348.885 60.498 348.885s-255.97 247.052-255.97 247.052c0 0 353.706 50.857 353.706 50.857s158.234 317.431 158.234 317.431c0 0 0 0 0 0" />
<glyph unicode="&#x6d;" glyph-name="icon-modules" d="M840.098-64c0 0 0 638.56 0 638.56s-655.196 0-655.196 0c0 0 0-638.56 0-638.56s-184.402 0-184.402 0c0 0 0 785.596 0 785.596s497.412 238.404 497.412 238.404c0 0 526.46-238.404 526.46-238.404s0-785.596 0-785.596c0 0-184.274 0-184.274 0s0 0 0 0M355.099 234.933c0 0-116.195 0-116.195 0s0 99.943 0 99.943c0 0 116.195 0 116.195 0s0-99.943 0-99.943c0 0 0 0 0 0M355.099 97.752c0 0-116.195 0-116.195 0s0 100.071 0 100.071c0 0 116.195 0 116.195 0s0-100.071 0-100.071c0 0 0 0 0 0M355.099-39.43c0 0-116.195 0-116.195 0s0 100.071 0 100.071c0 0 116.195 0 116.195 0s0-100.071 0-100.071c0 0 0 0 0 0M497.912 234.933c0 0-116.323 0-116.323 0s0 99.943 0 99.943c0 0 116.323 0 116.323 0s0-99.943 0-99.943c0 0 0 0 0 0M497.912 97.752c0 0-116.323 0-116.323 0s0 100.071 0 100.071c0 0 116.323 0 116.323 0s0-100.071 0-100.071c0 0 0 0 0 0M497.912-39.43c0 0-116.323 0-116.323 0s0 100.071 0 100.071c0 0 116.323 0 116.323 0s0-100.071 0-100.071c0 0 0 0 0 0M640.596 97.752c0 0-116.323 0-116.323 0s0 100.071 0 100.071c0 0 116.323 0 116.323 0s0-100.071 0-100.071c0 0 0 0 0 0M640.596-39.43c0 0-116.323 0-116.323 0s0 100.071 0 100.071c0 0 116.323 0 116.323 0s0-100.071 0-100.071c0 0 0 0 0 0M783.28-39.43c0 0-116.323 0-116.323 0s0 100.071 0 100.071c0 0 116.323 0 116.323 0s0-100.071 0-100.071c0 0 0 0 0 0" />
<glyph unicode="&#x6e;" glyph-name="icon-revision" d="M958.738 11.354c0 0 0 914.359 0 914.359 0 27.378-36.334 34.287-36.334 34.287s-747.275 0-747.275 0c-109.001 0-109.129-109.769-109.129-109.769s0-877.641 0-877.641c0-20.214 17.271-36.59 38.765-36.59 0 0 698.786 0 698.786 0 21.366 0 38.765 16.376 38.765 36.59 0 0 77.657 0 77.657 0 41.835 0 38.765 38.764 38.765 38.764s0 0 0 0M221.186-1.567c0 0-67.038 0-67.038 0s0 799.6 0 799.6c0 0 67.038 0 67.038 0s0-799.6 0-799.6c0 0 0 0 0 0M882.36 29.521c0 0-6.781-23.796-40.044-23.796 0 0 0 806.509 0 806.509 0 20.214-17.399 36.462-38.765 36.462 0 0-20.597 0-20.597 0 2.814-0.64 4.989-2.815 4.989-5.63 0 0 0-418.094 0-418.094 0-2.559-1.535-4.734-3.966-5.758-2.687-1.023-5.501-0.511-7.42 1.408 0 0-107.594 101.325-107.594 101.325s-107.595-101.325-107.595-101.325c-1.407-1.28-2.942-1.919-4.861-1.919-0.768 0-1.663 0.128-2.431 0.511-2.559 1.024-4.094 3.199-4.094 5.758 0 0 0 418.094 0 418.094 0 2.943 2.303 5.118 5.117 5.758 0 0-412.721 0.128-412.721 0.128 0 25.203 40.044 37.869 40.044 37.869s659.894 0 659.894 0c41.323 0 40.044-34.287 40.044-34.287s0-823.013 0-823.013c0 0 0 0 0 0" />
<glyph unicode="&#x6f;" glyph-name="icon-circle-check" d="M512.382 959.733c-393.844 0-639.997-426.35-443.075-767.426 196.923-341.076 689.228-341.076 886.151 0 44.9 77.773 68.542 166.002 68.542 255.809 0 282.557-229.061 511.617-511.618 511.617 0 0 0 0 0 0M800.618 562.617c0 0-333.272-333.2-333.272-333.2-13.382-13.756-35.475-13.756-48.856 0 0 0-194.559 194.559-194.559 194.559-13.756 13.381-13.756 35.475 0 48.856 0 0 55.341 55.341 55.341 55.341 13.382 13.756 35.475 13.756 48.856 0 0 0 114.79-114.79 114.79-114.79s253.431 253.431 253.431 253.431c13.381 13.756 35.474 13.756 48.855 0 0 0 55.414-55.341 55.414-55.341 13.756-13.381 13.756-35.474 0-48.856 0 0 0 0 0 0" />
<glyph unicode="&#x70;" glyph-name="icon-arrow-back" d="M715.255-59.305c0 0-484.34 497.089-484.34 497.089-4.553 6.26-4.553 15.481 0 21.627 0 0 484.34 497.089 484.34 497.089 6.032 4.667 13.545 4.667 19.578 0 0 0 61.695-64.996 61.695-64.996s-421.165-432.093-421.165-432.093c-4.553-6.146-4.553-15.367 0-21.627 0 0 421.165-432.093 421.165-432.093s-61.695-64.996-61.695-64.996c-6.033-6.26-13.546-6.26-19.578 0 0 0 0 0 0 0s0 0 0 0" />
<glyph unicode="&#x71;" glyph-name="icon-success" d="M819.048 569.994c0 0-355.026-355.026-355.026-355.026-7.346-7.312-16.006-10.985-26.021-10.985-10.054 0-18.72 3.673-26.026 10.985 0 0-207.023 206.983-207.023 206.983-7.312 7.346-10.984 16.012-10.984 26.026s3.672 18.709 10.984 26.021c0 0 58.986 58.986 58.986 58.986 7.346 7.311 16.006 10.984 26.020 10.984 10.054 0 18.72-3.673 26.026-10.984 0 0 122.017-121.978 122.017-121.978s270.015 270.015 270.015 270.015c7.317 7.317 16.011 10.99 26.026 10.99s18.674-3.673 26.026-10.99c0 0 58.974-58.975 58.974-58.975 7.312-7.346 10.985-16.011 10.985-26.026 0-10.020-3.673-18.714-10.979-26.026 0 0 0 0 0 0s0 0 0 0M512 960c-282.771 0-512-229.229-512-512s229.229-512 512-512c282.771 0 512 229.229 512 512s-229.229 512-512 512c0 0 0 0 0 0M512-32.97c-265.631 0-480.97 215.339-480.97 480.97s215.339 480.97 480.97 480.97c265.631 0 480.97-215.339 480.97-480.97s-215.339-480.97-480.97-480.97c0 0 0 0 0 0" />
<glyph unicode="&#x72;" glyph-name="icon-process" d="M314.178 56.5c0 0 0 166.067 0 166.067s709.822 0 709.822 0c0 0 0-166.067 0-166.067s-709.822 0-709.822 0c0 0 0 0 0 0M314.178 531.261c0 0 709.822 0 709.822 0s0-166.127 0-166.127c0 0-709.822 0-709.822 0s0 166.127 0 166.127c0 0 0 0 0 0M314.178 839.896c0 0 709.822 0 709.822 0s0-166.128 0-166.128c0 0-709.822 0-709.822 0s0 166.128 0 166.128c0 0 0 0 0 0M0 222.567c0 0 224.576 0 224.576 0s0-166.067 0-166.067c0 0-224.576 0-224.576 0s0 166.067 0 166.067c0 0 0 0 0 0M0 531.261c0 0 224.576 0 224.576 0s0-166.127 0-166.127c0 0-224.576 0-224.576 0s0 166.127 0 166.127c0 0 0 0 0 0M0 839.896c0 0 224.576 0 224.576 0s0-166.128 0-166.128c0 0-224.576 0-224.576 0s0 166.128 0 166.128c0 0 0 0 0 0" />
<glyph unicode="&#x73;" glyph-name="icon-users" d="M699.72 153.31c-12.329 66.109-41.206 127.795-84.583 180.019 43.418 39.649 101.171 63.857 164.619 63.857 134.881 0 244.244-109.2 244.244-243.876 0 0-324.28 0-324.28 0s0 0 0 0M779.756 488.608c-74.384 0-134.718 60.253-134.718 134.554s60.334 134.554 134.718 134.554c74.424 0 134.758-60.252 134.758-134.554s-60.334-134.554-134.758-134.554c0 0 0 0 0 0M307.487 386.536c169.82 0 307.486-137.462 307.486-307.036 0 0-614.973 0-614.973 0 0 169.574 137.667 307.036 307.487 307.036 0 0 0 0 0 0M307.487 478c-93.717 0-169.657 75.817-169.657 169.369 0 93.594 75.94 169.411 169.657 169.411 93.675 0 169.656-75.817 169.656-169.411 0-93.552-75.981-169.369-169.656-169.369 0 0 0 0 0 0" />
<glyph unicode="&#x74;" glyph-name="icon-active-users" d="M765.495 960c0 0-568.495-582.244-568.495-582.244s210.812 0 210.812 0c0 0-161.999-441.756-161.999-441.756s582.047 582.244 582.047 582.244c0 0-210.851 0-210.851 0s148.486 441.756 148.486 441.756c0 0 0 0 0 0" />
<glyph unicode="&#x75;" glyph-name="icon-inner-check" d="M1006.849 643.42c0 0-571.56-567.367-571.56-567.367-11.848-11.702-25.794-17.553-41.933-17.553s-30.133 5.851-41.885 17.553c0 0-333.271 330.785-333.271 330.785-11.8 11.752-17.7 25.599-17.7 41.592s5.9 29.89 17.7 41.592c0 0 94.935 94.253 94.935 94.253 11.848 11.702 25.793 17.553 41.884 17.553 16.188 0 30.134-5.851 41.933-17.553 0 0 196.404-194.941 196.404-194.941s434.74 431.522 434.74 431.522c11.751 11.702 25.745 17.602 41.885 17.602s30.085-5.9 41.933-17.602c0 0 94.935-94.252 94.935-94.252 11.751-11.702 17.651-25.599 17.651-41.592s-5.9-29.89-17.651-41.592c0 0 0 0 0 0" />
<glyph unicode="&#x76;" glyph-name="icon-magnifying-glass" d="M1009.762 58.258c-25.83-38.687-77.375-48.472-114.81-21.505 0 0-339.423 242.704-339.423 242.704-24.008 17.182-36.411 45.060-35.501 73.165-43.693-48.473-101.155-81.016-165.444-93.191-78.967-14.792-158.731 2.959-224.613 50.066s-110.144 117.995-124.481 199.58c-14.451 81.698 2.731 164.192 48.359 232.35 94.214 140.639 281.619 175.912 417.82 78.626 123.572-88.525 163.055-256.245 98.88-391.764 25.033 10.923 54.845 8.761 78.967-8.534 0 0 339.423-242.705 339.423-242.705 37.435-26.853 46.879-79.991 20.823-118.792 0 0 0 0 0 0M506.715 603.519c-10.013 56.893-40.849 106.276-86.818 139.16-94.897 67.93-225.523 43.352-291.291-54.731-65.768-98.197-41.987-233.261 53.024-301.077 94.897-67.93 225.637-43.466 291.291 54.617 31.86 47.563 43.808 105.138 33.794 162.031 0 0 0 0 0 0" />
<glyph unicode="&#x77;" glyph-name="icon-lock" d="M150.5-64c0 0 0 610.042 0 610.042s723.109 0 723.109 0c0 0 0-610.042 0-610.042s-723.109 0-723.109 0c0 0 0 0 0 0M678.486 736.681c0 87.103-74.669 157.958-166.431 157.958-91.772 0-166.432-70.855-166.432-157.958 0 0 0-125.278 0-125.278s-68.875 0-68.875 0c0 0 0 125.278 0 125.278 0 123.142 105.564 223.319 235.307 223.319s235.296-100.177 235.296-223.319c0 0 0-125.278 0-125.278s-68.865 0-68.865 0c0 0 0 125.278 0 125.278s0 0 0 0" />
<glyph unicode="&#x78;" glyph-name="icon-coins" d="M726.481-17c-164.305 0-297.518 61.812-297.518 138.054 0 0 0 29.975 0 29.975 0 9.682 2.141 19.13 6.237 28.253 28.16-62.697 147.828-109.801 291.281-109.801 143.407 0 263.122 47.104 291.235 109.801 4.096-9.123 6.284-18.571 6.284-28.253 0 0 0-29.975 0-29.975 0-76.242-133.213-138.054-297.519-138.054 0 0 0 0 0 0M726.481 137.159c-164.305 0-297.518 61.812-297.518 138.053 0 0 0 29.929 0 29.929 0 9.682 2.141 19.13 6.237 28.3 28.16-62.697 147.828-109.801 291.281-109.801 143.407 0 263.122 47.104 291.235 109.801 4.096-9.17 6.284-18.618 6.284-28.3 0 0 0-29.929 0-29.929 0-76.241-133.213-138.053-297.519-138.053 0 0 0 0 0 0M726.481 299.602c-164.305 0-297.518 61.813-297.518 138.054 0 0 0 29.929 0 29.929 0 9.681 2.141 19.176 6.237 28.299 28.16-62.696 147.828-109.8 291.281-109.8 143.407 0 263.122 47.104 291.235 109.8 4.096-9.123 6.284-18.618 6.284-28.299 0 0 0-29.929 0-29.929 0-76.241-133.213-138.054-297.519-138.054 0 0 0 0 0 0M726.481 453.714c-164.305 0-297.518 61.813-297.518 138.054 0 0 0 29.975 0 29.975 0 9.682 2.141 19.13 6.237 28.253 28.16-62.696 147.828-109.754 291.281-109.754 143.407 0 263.122 47.058 291.235 109.754 4.096-9.123 6.284-18.571 6.284-28.253 0 0 0-29.975 0-29.975 0-76.241-133.213-138.054-297.519-138.054 0 0 0 0 0 0M726.481 607.873c-164.305 0-297.518 61.812-297.518 138.054 0 0 0 29.928 0 29.928 0 76.242 133.213 138.054 297.518 138.054 164.306 0 297.519-61.812 297.519-138.054 0 0 0-29.928 0-29.928 0-76.242-133.213-138.054-297.519-138.054 0 0 0 0 0 0M0 203.812c0 0 0 29.975 0 29.975 0 9.681 2.141 19.13 6.237 28.253 28.114-62.65 147.828-109.754 291.282-109.754 28.765 0 56.552 1.908 82.897 5.446 0 0 0-6.703 0-6.703s0-29.975 0-29.975c0-16.71 3.77-32.908 11.124-48.221-29.556-4.562-61.16-7.075-94.021-7.075-164.306 0-297.519 61.812-297.519 138.054 0 0 0 0 0 0M0 357.97c0 0 0 29.929 0 29.929 0 9.681 2.141 19.177 6.237 28.3 28.114-62.697 147.828-109.801 291.282-109.801 28.765 0 56.599 1.955 82.897 5.492 0 0 0-86.528 0-86.528-26.298-3.537-54.132-5.446-82.897-5.446-164.306 0-297.519 61.813-297.519 138.054 0 0 0 0 0 0M0 512.082c0 0 0 29.975 0 29.975 0 76.242 133.213 138.054 297.519 138.054 28.765 0 56.599-1.908 82.897-5.446 0 0 0-295.191 0-295.191-26.298-3.537-54.132-5.446-82.897-5.446-164.306 0-297.519 61.813-297.519 138.054 0 0 0 0 0 0" />
<glyph unicode="&#x79;" glyph-name="icon-integrated" d="M921.6 869.734c0 0-819.2 0-819.2 0-56.32 0-102.4-47.405-102.4-105.352 0 0 0-632.47 0-632.47 0-58.007 46.080-105.412 102.4-105.412 0 0 819.2 0 819.2 0 56.32 0 102.4 47.405 102.4 105.412 0 0 0 632.47 0 632.47 0 57.947-46.080 105.352-102.4 105.352 0 0 0 0 0 0M665.6 131.912c0 0-563.2 0-563.2 0s0 210.823 0 210.823c0 0 563.2 0 563.2 0s0-210.823 0-210.823c0 0 0 0 0 0M665.6 395.381c0 0-563.2 0-563.2 0s0 210.884 0 210.884c0 0 563.2 0 563.2 0s0-210.884 0-210.884c0 0 0 0 0 0M921.6 131.912c0 0-204.8 0-204.8 0s0 474.353 0 474.353c0 0 204.8 0 204.8 0s0-474.353 0-474.353c0 0 0 0 0 0" />
<glyph unicode="&#x7a;" glyph-name="icon-info" d="M874.026 810.581c-199.965 199.892-524.142 199.892-724.107 0-199.892-199.965-199.892-524.142 0-724.107 199.965-199.965 524.142-199.965 724.107 0s199.965 524.142 0 724.107c0 0 0 0 0 0M578.749 225.866c0-36.855-29.921-66.777-66.776-66.777s-66.777 29.922-66.777 66.777c0 0 0 267.179 0 267.179 0 36.855 29.922 66.777 66.777 66.777s66.776-29.922 66.776-66.777c0 0 0-267.179 0-267.179s0 0 0 0M510.805 607.186c-38.46 0-64.149 27.221-63.347 60.865-0.802 35.249 24.887 61.668 64.15 61.668s64.076-26.419 64.879-61.668c0-33.644-25.616-60.865-65.682-60.865 0 0 0 0 0 0" />
<glyph unicode="&#xe900;" glyph-name="icon-filter" d="M1014.613 923.051c-13.593 22.449-37.883 37.222-65.624 37.222-0.569 0-1.137-0.006-1.704-0.019l0.084 0.001h-871.765c-0.453 0.010-0.988 0.015-1.524 0.015-27.768 0-52.086-14.769-65.527-36.881l-0.192-0.34c-6.078-10.081-9.673-22.253-9.673-35.265 0-14.089 4.216-27.194 11.454-38.122l-0.16 0.256c1.365-1.451 1.365-2.816 2.816-4.181l349.611-434.773v-313.259c0-19.371 10.24-37.291 27.819-46.848l179.797-106.411c8.692-5.197 19.173-8.27 30.371-8.27 10.276 0 19.948 2.588 28.4 7.147l-0.318-0.157c18.245 8.733 30.639 27.016 30.72 48.203v419.595l349.611 434.773c1.536 1.365 1.536 2.731 2.987 4.181 7.453 10.885 11.902 24.337 11.902 38.829 0 12.617-3.372 24.446-9.264 34.635l0.178-0.334z" />
<glyph unicode="&#xe901;" glyph-name="icon-menu-contract" horiz-adv-x="791" d="M444.975 294.307v-358.26h-445.207v1024h791.273v-665.74h-346.065zM642.56 806.307h-494.545v-102.4h494.545v102.4zM642.56 601.507h-494.545v-102.4h494.545v102.4zM543.93-33.932v225.839h218.112l-218.112-225.839z" />
<glyph unicode="&#xe902;" glyph-name="icon-menu-sapakim" horiz-adv-x="1073" d="M17.896 867.547c-11.005 9.574-17.922 23.602-17.922 39.246 0 13.864 5.433 26.459 14.285 35.772l-0.021-0.022c10.213 10.693 24.583 17.34 40.505 17.34 14.111 0 27.002-5.221 36.847-13.836l-0.065 0.056 167.058-148.041c8.68-7.704 14.531-17.896 16.823-29.111l114.834-569.539 615.424 117.175c29.501 6.437 58.709-11.557 65.292-40.131 6.68-28.574-11.8-56.954-41.301-63.39-0.926-0.244-1.999-0.39-3.023-0.585l-629.711-119.613c28.428-52.224 7.899-116.931-45.982-144.53-53.736-27.599-120.491-7.656-148.919 44.568-28.477 52.224-7.899 116.931 45.885 144.53 11.982 6.232 25.977 10.469 40.799 11.863l0.454 0.034-117.662 582.363-153.6 135.851zM361.228 749.349c-0.431 2.179-0.677 4.685-0.677 7.248 0 19.253 13.913 35.257 32.234 38.505l0.236 0.035 0.293 0.049 432.567 82.261c2.367 0.495 5.086 0.778 7.872 0.778 19.141 0 35.159-13.368 39.229-31.277l0.052-0.27 84.797-420.035c0.416-2.144 0.654-4.609 0.654-7.13 0-19.247-13.869-35.254-32.158-38.573l-0.239-0.036-432.908-82.359c-2.378-0.5-5.11-0.786-7.91-0.786-19.134 0-35.145 13.375-39.192 31.286l-0.051 0.269-84.797 420.035zM578.072 544.744l23.016-14.775 24.186-15.994c13.507-8.826 31.744-5.364 40.862 7.656l16.53 23.552 58.953 84.894c2.48 4.090 3.947 9.032 3.947 14.318 0 10.61-5.914 19.839-14.625 24.57l-0.147 0.073c-4.227 2.405-9.287 3.823-14.678 3.823-9.321 0-17.651-4.238-23.17-10.893l-0.040-0.050-58.807-84.943-22.674 14.872c-4.617 3.084-10.295 4.921-16.401 4.921-10 0-18.85-4.927-24.254-12.486l-0.061-0.090c-3.23-4.493-5.165-10.105-5.165-16.169 0-9.683 4.935-18.214 12.426-23.215l0.102-0.064z" />
<glyph unicode="&#xe903;" glyph-name="icon-menu-drishot" d="M1021.021 685.242l-127.953-416.023c-8.285-26.857-33.047-45.196-61.207-45.196h-479.977c-27.927 0-52.596 18.060-61.021 44.684l-177.943 563.293h-49.012c-35.346 0-64 28.654-64 64s28.654 64 64 64v0h96.023c27.881 0 52.55-18.060 60.928-44.684l46.592-147.316h692.457c35.312-0.079 63.908-28.723 63.908-64.046 0-6.676-1.022-13.114-2.917-19.165l0.122 0.454zM415.93 128c53.019 0 96-42.981 96-96s-42.981-96-96-96v0c-53.019 0-96 42.981-96 96s42.981 96 96 96v0zM767.907 128c53.006 0 95.977-42.97 95.977-95.977s-42.97-95.977-95.977-95.977v0c-53.006 0-95.977 42.97-95.977 95.977s42.97 95.977 95.977 95.977v0z" />
<glyph unicode="&#xe904;" glyph-name="icon-order" horiz-adv-x="960" d="M900.16-63.872h-840.896c-32.853 0.576-59.264 27.343-59.264 60.279 0 0.071 0 0.141 0 0.212v-0.011 533.184c-0.192 8.128 3.136 14.208 11.264 21.76l92.8 84.672v133.568c0.193 11.784 8.895 21.478 20.219 23.215l0.133 0.017h150.976l167.36 152.704h0.384c9.712 8.742 22.632 14.089 36.8 14.089s27.087-5.347 36.85-14.133l-0.050 0.044 166.976-152.704h148.608c11.84 0 22.72-11.072 22.72-23.232v-132.8l95.552-87.296c5.952-5.632 9.344-10.752 9.344-19.52v-533.568c-0.069-33.128-26.706-60.012-59.732-60.48h-0.044zM809.472 746.688h-659.968v-281.28l321.984-238.976c6.656-4.864 10.176-4.864 16.768 0l321.216 238.592v281.664zM260.16 490.56c-12.352 0.385-22.219 10.491-22.219 22.902 0 0.251 0.004 0.502 0.012 0.751l-0.001-0.036c0.18 12.587 10.425 22.721 23.038 22.721 0.068 0 0.137 0 0.205-0.001h437.75c12.544-0.256 22.528-10.88 22.208-23.68-0.107-12.537-10.295-22.659-22.847-22.659-0.135 0-0.27 0.001-0.405 0.004h-437.74zM697.92 602.368h-436.992c-12.517 0.179-22.595 10.367-22.595 22.91 0 0.136 0.001 0.271 0.004 0.407v-0.020c0 12.8 10.304 23.104 22.848 23.104h436.736c12.586-0.18 22.72-10.426 22.72-23.038 0-0.023 0-0.047 0-0.070v0.004c0.001-0.077 0.001-0.167 0.001-0.258 0-12.613-10.135-22.858-22.705-23.038h-0.017z" />
<glyph unicode="&#xe905;" glyph-name="icon-notes" horiz-adv-x="1078" d="M513.186 960v-333.123h77.016v-86.339l115.443 86.339h372.197v333.123h-564.655zM625.071 873.661h1.24c0.355 0.026 0.768 0.040 1.186 0.040s0.831-0.015 1.241-0.044l-0.055 0.003h333.662c0.214 0.006 0.466 0.010 0.719 0.010 13.652 0 24.782-10.8 25.311-24.323l0.001-0.048c-0.122-13.837-11.367-25.007-25.222-25.007-0.019 0-0.039 0-0.058 0h-334.414c-0.66-0.061-1.428-0.096-2.204-0.096-13.189 0-24.023 10.079-25.221 22.955l-0.008 0.1c-0.026 0.427-0.041 0.925-0.041 1.427 0 13.408 10.553 24.352 23.806 24.979l0.056 0.002zM625.071 762.637h337.273c0.214 0.006 0.466 0.010 0.719 0.010 13.652 0 24.782-10.8 25.311-24.323l0.001-0.048c-0.092-13.831-11.325-25.007-25.168-25.007-0.038 0-0.076 0-0.114 0h-334.411c-0.66-0.061-1.428-0.096-2.204-0.096-13.189 0-24.023 10.079-25.221 22.955l-0.008 0.1c-0.026 0.427-0.041 0.925-0.041 1.427 0 13.408 10.553 24.352 23.806 24.979l0.056 0.002zM346.381 565.221c-85.046 0-154.031-66.291-154.031-148.049s68.985-148.049 154.031-148.049c85.1 0 153.977 66.291 153.977 148.049s-68.877 148.049-153.977 148.049zM346.381 207.414c-191.326 0-346.489-121.479-346.489-271.414h692.979c0 149.935-155.109 271.414-346.489 271.414z" />
<glyph unicode="&#xe906;" glyph-name="icon-stage" d="M592.192 49.792c-8.785 24.285-27.569 43.090-51.246 51.715l-0.594 0.189v90.368h255.936v369.728h113.856l-398.272 398.208-398.208-398.208h113.792v-369.728h255.936v-90.368c-24.243-8.886-43.018-27.661-51.712-51.307l-0.192-0.597h-431.616v-56.896h431.744c12.015-33.427 43.442-56.902 80.352-56.902s68.336 23.474 80.165 56.308l0.187 0.594h431.616v56.896h-431.744zM511.872-7.104c-15.7 0.072-28.408 12.78-28.48 28.473v0.007c1.031 14.921 13.388 26.634 28.48 26.634s27.449-11.713 28.475-26.544l0.005-0.089c-0.072-15.7-12.78-28.408-28.473-28.48h-0.007z" />
<glyph unicode="&#xe907;" glyph-name="icon-device" horiz-adv-x="1463" d="M91.355-64h1280l91.429 93.111v837.778l-91.429 93.111h-1280l-91.502-93.111v-837.778l91.502-93.111zM274.213 820.37h1040.384l11.045-11.191v-722.359l-11.045-11.191h-1040.384v744.741zM91.355 494.592h91.355v-93.111h-91.355v93.111z" />
<glyph unicode="&#xe908;" glyph-name="icon-mobile" horiz-adv-x="701" d="M587.129 959.892h-473.896c-62.518 0-113.287-49.745-113.287-111.131v-801.63c0-61.386 50.769-111.131 113.287-111.131h473.896c62.572 0 113.287 49.745 113.287 111.131v801.63c0 61.386-50.715 111.131-113.287 111.131zM350.154 36.406c-0.161-0.001-0.351-0.002-0.542-0.002-34.409 0-62.343 27.727-62.677 62.057v0.032c0 34.277 28.349 62.033 63.219 62.033 35.032 0 63.326-27.756 63.326-62.033s-28.295-62.087-63.326-62.087zM602.597 221.965h-504.778v636.173h504.778v-636.173z" />
<glyph unicode="&#xe909;" glyph-name="icon-comment" horiz-adv-x="1434" d="M716.595 959.078c-399.974 0-715.674-197.018-715.674-433.357 0-157.594 178.893-295.424 357.99-374.272 0-167.424-179.098-216.576-179.098-216.576 252.621 0 389.427 98.406 452.608 167.322h84.173c389.53 0 715.878 197.018 715.878 433.357s-326.349 423.526-715.878 423.526zM442.982 407.552c-52.634 0-84.070 29.491-84.070 78.746s31.437 78.848 84.070 78.848c52.531 0 84.070-29.594 84.070-78.848s-31.539-78.746-84.070-78.746zM716.595 407.552c-52.736 0-84.173 29.491-84.173 78.746s20.992 78.848 84.173 78.848c63.283 0 84.378-29.594 84.378-78.848s-31.539-78.746-84.378-78.746zM979.866 407.552c-52.634 0-84.275 29.491-84.275 78.746s31.642 78.848 84.275 78.848c52.429 0 84.070-29.594 84.070-78.848s-31.642-78.746-84.070-78.746z" />
<glyph unicode="&#xe90a;" glyph-name="icon-matrix" d="M639.872 576h-256.128v-256h256.128v256zM255.744 192h-255.936v-256h255.936v256zM383.744 192v-256h256.128v256h-256.128zM-0.192 960v-256h255.936v256h-255.936zM255.744 576h-255.936v-256h255.936v256zM639.872 704v256h-256.128v-256h256.128zM1023.808 320v256h-255.936v-256h255.936zM1023.808-64v256h-255.936v-256h255.936zM1023.808 704v256h-255.936v-256h255.936z" />
<glyph unicode="&#xe90b;" glyph-name="icon-user-list" d="M551.385 172.308v19.692c-43.503 0-78.769 35.266-78.769 78.769v0 66.166c0.006 33.668 21.135 62.4 50.855 73.666l0.542 0.18h2.166l4.332 1.182 99.643 23.631v30.917c-36.427 34.688-59.081 83.553-59.081 137.71 0 0.463 0.002 0.926 0.005 1.389v-0.071c0 98.462 70.695 177.231 157.538 177.231 6.975-0.029 13.792-0.601 20.442-1.675l-0.749 0.1v60.652c0 43.503-35.266 78.769-78.769 78.769v0h-393.846v-177.231c0-10.876-8.817-19.692-19.692-19.692v0h-177.231v-669.538c0-43.503 35.266-78.769 78.769-78.769v0h512c43.503 0 78.769 35.266 78.769 78.769v0 59.077h-137.846c-32.627 0-59.077 26.45-59.077 59.077v0zM374.154 763.077h196.923c10.876 0 19.692-8.817 19.692-19.692s-8.817-19.692-19.692-19.692v0h-196.923c-10.876 0-19.692 8.817-19.692 19.692s8.817 19.692 19.692 19.692v0zM216.615 625.231h275.692c10.876 0 19.692-8.817 19.692-19.692s-8.817-19.692-19.692-19.692v0h-275.692c-10.876 0-19.692 8.817-19.692 19.692s8.817 19.692 19.692 19.692v0zM216.615 507.077h196.923c10.876 0 19.692-8.817 19.692-19.692s-8.817-19.692-19.692-19.692v0h-196.923c-10.876 0-19.692 8.817-19.692 19.692s8.817 19.692 19.692 19.692v0zM216.615 388.923h118.154c10.876 0 19.692-8.817 19.692-19.692s-8.817-19.692-19.692-19.692v0h-118.154c-10.876 0-19.692 8.817-19.692 19.692s8.817 19.692 19.692 19.692v0zM216.615 270.769h196.923c10.876 0 19.692-8.817 19.692-19.692s-8.817-19.692-19.692-19.692v0h-196.923c-10.876 0-19.692 8.817-19.692 19.692s8.817 19.692 19.692 19.692v0zM492.308 113.231h-275.692c-10.876 0-19.692 8.817-19.692 19.692s8.817 19.692 19.692 19.692v0h275.692c10.876 0 19.692-8.817 19.692-19.692s-8.817-19.692-19.692-19.692v0zM236.308 908.997l-146.117-145.92h146.117v145.92zM590.769 172.308c0-10.876 8.817-19.692 19.692-19.692v0h236.308c10.876 0 19.692 8.817 19.692 19.692v0 59.077h-275.692zM919.631 372.775l-131.938 31.705v81.526c36.003 26.366 59.12 68.483 59.12 115.999 0 1.242-0.016 2.481-0.047 3.716l0.004-0.183c0 76.012-52.972 137.846-118.154 137.846s-118.154-61.834-118.154-137.846c-0.015-0.786-0.024-1.714-0.024-2.643 0-47.955 23.071-90.522 58.719-117.207l0.382-0.273v-81.329l-129.378-29.538h-2.363c-15.188-5.696-25.802-20.093-25.802-36.968 0-0.226 0.002-0.452 0.006-0.678v0.034-66.166h433.231v65.182c-0.030 16.773-10.54 31.083-25.33 36.734l-0.27 0.091z" />
<glyph unicode="&#xe90c;" glyph-name="icon-half-inner-check" horiz-adv-x="1416" d="M1369.582 716.393c0 18.412-7.082 33.992-22.661 48.155l-121.804 109.057c-15.58 14.163-32.575 19.828-53.82 19.828s-38.241-7.082-53.82-19.828l-222.362-199.701-164.293 147.297c-29.743 25.494-75.065 22.661-100.559-5.665l-67.983-75.065c-26.91-28.326-24.077-73.649 4.249-99.142l145.881-130.302-154.379-137.383-253.521 226.611c-15.58 14.163-32.575 19.828-53.82 19.828s-38.241-7.082-53.82-19.828l-121.804-109.057c-15.58-14.163-22.661-29.743-22.661-48.155s7.082-33.992 22.661-48.155l429.145-382.407c15.58-14.163 32.575-19.828 53.82-19.828s38.241 7.082 53.82 19.828l328.586 293.178 145.881-130.302c29.743-25.494 75.065-22.661 100.559 5.665l69.4 73.649c25.494 29.743 22.661 75.065-5.665 100.559l-127.469 113.306 223.779 199.701c15.58 14.163 22.661 29.743 22.661 48.155z" />
<glyph unicode="&#xe90d;" glyph-name="icon-radio" d="M512 960c-282.77 0-512-229.23-512-512s229.23-512 512-512c282.77 0 512 229.23 512 512v0c0 282.77-229.23 512-512 512v0zM512 5.349c-244.47 0-442.651 198.182-442.651 442.651s198.182 442.651 442.651 442.651c244.47 0 442.651-198.182 442.651-442.651v0c0-244.47-198.182-442.651-442.651-442.651v0z" />
<glyph unicode="&#xe90e;" glyph-name="icon-radio-checked" d="M512 960c-282.77 0-512-229.23-512-512s229.23-512 512-512c282.77 0 512 229.23 512 512v0c0 282.77-229.23 512-512 512v0zM512 5.349c-244.47 0-442.651 198.182-442.651 442.651s198.182 442.651 442.651 442.651c244.47 0 442.651-198.182 442.651-442.651v0c0-244.47-198.182-442.651-442.651-442.651v0zM784.968 448c0-150.756-122.212-272.968-272.968-272.968s-272.968 122.212-272.968 272.968c0 150.756 122.212 272.968 272.968 272.968s272.968-122.212 272.968-272.968z" />
</font>
</defs>
</svg>
